<svg id="11057c15-8ee9-4859-b8aa-650a7bb7c933" data-name="Layer 1" xmlns="http://www.w3.org/2000/svg" viewBox="0 0 469.09 469.09"><title>codepen</title><path d="M234.55,0C105,0,0,105,0,234.55S105,469.09,234.55,469.09s234.55-105,234.55-234.55S364.09,0,234.55,0Zm0,430.58c-108.09,0-196-87.94-196-196s87.94-196,196-196,196,87.94,196,196S342.64,430.58,234.55,430.58Z" style="fill:#efefef"/><path d="M379.46,188.74c0-.18-0.07-0.36-0.1-0.54-0.06-.35-0.13-0.7-0.22-1s-0.13-.4-0.19-0.6-0.2-.61-0.32-0.91-0.18-.41-0.28-0.61-0.27-.56-0.42-0.82-0.24-.39-0.35-0.58-0.34-.51-0.53-0.76l-0.43-.54c-0.2-.23-0.4-0.46-0.62-0.67s-0.32-.34-0.5-0.49-0.46-.4-0.7-0.59l-0.56-.43L374,180,241.46,91.62a12.46,12.46,0,0,0-13.83,0L95.07,180l-0.21.15c-0.19.14-.38,0.28-0.56,0.43s-0.48.39-.71,0.59-0.34.32-.5,0.49-0.42.44-.62,0.67-0.29.36-.43,0.54-0.36.5-.52,0.76-0.24.38-.36,0.58-0.29.54-.42,0.82-0.19.4-.28,0.61-0.22.6-.32,0.91-0.14.4-.19,0.6-0.15.69-.22,1c0,0.18-.08.36-0.1,0.54a12,12,0,0,0-.11,1.63v88.37a12.25,12.25,0,0,0,.11,1.63c0,0.18.07,0.36,0.1,0.53,0.06,0.35.13,0.7,0.22,1s0.13,0.4.19,0.6,0.2,0.61.32,0.92,0.18,0.41.28,0.6,0.27,0.56.42,0.83l0.36,0.57c0.16,0.26.34,0.51,0.52,0.76s0.28,0.37.43,0.54,0.4,0.46.62,0.67,0.32,0.34.5,0.49,0.46,0.41.71,0.6,0.37,0.29.56,0.43l0.21,0.15,132.56,88.38a12.44,12.44,0,0,0,13.83,0L374,289.1l0.21-.15c0.19-.14.38-0.28,0.56-0.43s0.48-.39.7-0.6,0.33-.32.5-0.49,0.42-.44.62-0.67,0.29-.35.43-0.54,0.36-.5.53-0.76l0.35-.57c0.16-.28.29-0.55,0.42-0.83s0.19-.4.28-0.6,0.22-.61.32-0.92,0.14-.4.19-0.6,0.16-.69.22-1c0-.17.08-0.36,0.1-0.53a13,13,0,0,0,.11-1.63V190.36A12.77,12.77,0,0,0,379.46,188.74ZM247,125.28l97.65,65.1L301,219.56l-54-36.15V125.28Zm-24.93,0v58.13l-54,36.15-43.62-29.18ZM114.45,213.69l31.18,20.86-31.18,20.86V213.69ZM222.08,343.82l-97.65-65.1,43.62-29.17,54,36.14v58.13ZM234.55,264l-44.08-29.49,44.08-29.49,44.08,29.49ZM247,343.82V285.69l54-36.14,43.62,29.17Zm107.63-88.41-31.18-20.86,31.18-20.86v41.72Z" style="fill:#efefef"/></svg>