<?xml version="1.0" encoding="utf-8"?>
<!-- Generator: Adobe Illustrator 19.2.1, SVG Export Plug-In . SVG Version: 6.00 Build 0)  -->
<svg version="1.1" id="Layer_1" xmlns="http://www.w3.org/2000/svg" xmlns:xlink="http://www.w3.org/1999/xlink" x="0px" y="0px"
	 viewBox="0 0 465 306" style="enable-background:new 0 0 465 306;" xml:space="preserve">
<style type="text/css">
	.st0{fill:#EFEFEF;}
</style>
<title>Group</title>
<desc>Created with Sketch.</desc>
<g id="Page-1">
	<g id="Group">
		<path id="path29" class="st0" d="M0.7,147c0-47.1,16.7-89.2,50.3-126.6C63.2,7,73.3,0.1,80.2,0.1c2.3,0,4.6,0.7,6.8,2.2
			c1.5,1.5,3,3.7,3,5.9c0,3.7-4.6,8.9-12.9,17.3C42,58.6,24.3,98.9,24.3,147.8c0,54,18.5,97.4,54.4,131.1
			c7.6,6.7,10.6,11.9,10.6,16.4c0,2.2-1.5,4.5-3,6.7c-1.5,1.5-4.6,3-6.8,3c-8.3,0-20-9.7-35.2-28.5C14.6,240.7,0.7,198,0.7,147
			L0.7,147L0.7,147z"/>
		<path id="path31" class="st0" d="M464.1,158.9c0,47.1-16.7,89.2-50.3,126.6c-12.1,13.4-22.3,20.3-29.1,20.3
			c-2.3,0-4.6-0.7-6.8-2.2c-1.5-1.5-3-4.5-3-6.7c0-3.7,4.6-8.9,12.9-16.4c35.2-32.9,52.9-73.3,52.9-122.1c0-54-18.5-97.4-54.4-131.1
			c-7.6-6.7-10.6-11.9-10.6-16.4c0-2.2,1.5-4.5,3-6.7c1.5-1.5,4.6-3,6.8-3c7.6,0,20,9.7,35.2,28.5
			C448.7,65.5,464.1,108.1,464.1,158.9L464.1,158.9L464.1,158.9z"/>
		<g id="g33" transform="translate(107.580239, 265.729742)">
			<path id="path37" class="st0" d="M231,29.8H19c-7.6,0-13.3-5.6-13.3-13s5.7-13,13.3-13h212c7.6,0,13.3,5.6,13.3,13
				C242.4,24.2,238.6,29.8,231,29.8L231,29.8z"/>
		</g>
		<path id="Shape" class="st0" d="M187.4,25.6c0,0,17.7,11.9,17.7,33.7c0,37.4-52.1,78.5-52.1,117.4c0,41.9,32.9,68.9,64.2,77
			c4.6,0.7,6.1-3.7,0.8-5.2c-12.9-3-26.8-19.6-26.8-44.8c0-24,23.8-32.9,32.9-44.1c9.9-11.9,7.6-27,1.5-31.5
			c-6.1-4.5-1.5-10.4,8.3-3c9.9,6.7,18.5,20.3,15.2,32.2c-3.8,15.6,1.5,24.8,9.9,26.3c8.3,1.5,17.7-3,16.7-10.4s-5.3-15.6-3-15.6
			c6.1,0,18.5,14.1,18.5,37.4s-19.2,38.9-25.3,44.8c-3.8,3.7,0.8,8.2,6.1,5.9c2.3-0.7,7.6-3.7,10.6-5.9c15.2-10.4,39-32.2,39-71.8
			c0-41.9-15.9-60.7-32.9-76.3c-16.7-15.6-20.7-11.9-15.9-3.7c13.7,23.3,5.3,31.5-4.6,31.5c-12.1,0-12.1-26.3-17.7-46.3
			c-9.9-44.8-52.1-52.5-59.7-53.3C185.1,17.4,178,21.9,187.4,25.6L187.4,25.6z"/>
	</g>
</g>
</svg>
