<svg id="b92ed5f7-55c6-4786-b9ee-ec4cc8ec3e2f" data-name="Layer 1" xmlns="http://www.w3.org/2000/svg" viewBox="0 0 120.78 117.79"><title>github</title><path d="M60.39,0A60.39,60.39,0,0,0,41.3,117.69c3,0.56,4.13-1.31,4.13-2.91,0-1.44-.06-6.2-0.08-11.24C28.54,107.19,25,96.42,25,96.42c-2.75-7-6.7-8.84-6.7-8.84-5.48-3.75.41-3.67,0.41-3.67C24.77,84.34,28,90.13,28,90.13c5.39,9.23,14.13,6.56,17.57,5,0.54-3.9,2.11-6.57,3.83-8.08C36,85.55,21.85,80.37,21.85,57.23A23.37,23.37,0,0,1,28.08,41c-0.63-1.52-2.69-7.66.58-16,0,0,5.07-1.62,16.61,6.19a57.26,57.26,0,0,1,30.24,0C87,23.42,92.11,25,92.11,25c3.29,8.32,1.22,14.46.59,16a23.32,23.32,0,0,1,6.21,16.21c0,23.19-14.13,28.3-27.57,29.8,2.17,1.87,4.1,5.55,4.1,11.18,0,8.08-.07,14.58-0.07,16.57,0,1.61,1.09,3.49,4.15,2.9A60.4,60.4,0,0,0,60.39,0Z" style="fill:#efefef;fill-rule:evenodd"/><path d="M22.87,86.7A0.93,0.93,0,0,1,21.29,86a0.76,0.76,0,0,1,1-.19,0.76,0.76,0,0,1,.54.91h0Zm-0.74-.55" style="fill:#fff"/><path d="M25.32,89.43a1.11,1.11,0,0,1-1.41-1.53,0.94,0.94,0,0,1,1.24.28,0.91,0.91,0,0,1,.17,1.25h0Zm-0.58-.62" style="fill:#fff"/><path d="M27.7,92.91a1.07,1.07,0,0,1-1.35-.52,1,1,0,0,1,0-1.44,1.27,1.27,0,0,1,1.34,2h0Zm0,0" style="fill:#fff"/><path d="M31,96.27A1.13,1.13,0,0,1,29.41,96a1.16,1.16,0,0,1-.34-1.54,1.15,1.15,0,0,1,1.56.23A1.14,1.14,0,0,1,31,96.27h0Zm0,0" style="fill:#fff"/><path d="M35.46,98.22a1.4,1.4,0,0,1-2.5-.75,1.4,1.4,0,0,1,2.5.75h0Zm0,0" style="fill:#fff"/><path d="M40.4,98.58a1.39,1.39,0,0,1-2.6,0,1.16,1.16,0,0,1,1.29-.92,1.14,1.14,0,0,1,1.31.88h0Zm0,0" style="fill:#fff"/><path d="M45,97.8a1.39,1.39,0,1,1-1.44-.66A1.17,1.17,0,0,1,45,97.8h0Zm0,0" style="fill:#fff"/></svg>