<?xml version="1.0" encoding="utf-8"?>
<!-- Generator: Adobe Illustrator 21.1.0, SVG Export Plug-In . SVG Version: 6.00 Build 0)  -->
<svg version="1.1" id="Layer_1" xmlns="http://www.w3.org/2000/svg" xmlns:xlink="http://www.w3.org/1999/xlink" x="0px" y="0px"
	 viewBox="0 0 563.9 563.9" style="enable-background:new 0 0 563.9 563.9;" xml:space="preserve">
<style type="text/css">
	.st0{fill:#CECECE;}
</style>
<title>Artboard 1</title>
<g>
	<polygon class="st0" points="232.7,510.6 232.7,510.6 276.1,496.8 275.9,496.8 	"/>
	<polygon class="st0" points="287.9,496.8 331.3,510.6 288,496.8 	"/>
	<polygon class="st0" points="350.6,275.9 350.7,276.1 362,240.6 336.8,232.6 361.9,240.6 	"/>
	<polygon class="st0" points="42.3,493.3 39.8,485.4 4.4,496.7 39.8,485.5 	"/>
	<polygon class="st0" points="39.9,361.9 47.9,336.8 39.8,361.9 	"/>
	<polygon class="st0" points="247.3,509.7 231.2,514.8 215.6,563.9 215.7,563.9 231.3,514.8 	"/>
	<polygon class="st0" points="516.2,510.6 516.2,510.6 559.6,496.8 559.4,496.8 	"/>
	<polygon class="st0" points="4.3,213.3 47.8,227.1 4.4,213.3 	"/>
	<polygon class="st0" points="496.7,559.5 485.5,524.1 510.5,516.1 485.4,524.1 	"/>
	<path class="st0" d="M326,365.2l-0.2,0.2c-0.1,0.1-0.3,0.3-0.6,0.4l0,0C325.5,365.7,325.8,365.5,326,365.2z"/>
	<path class="st0" d="M365.4,324.3l0.1,0.1h0.6v-0.1v-0.2l-13.4-42.2l13.4-41.9l0.1-0.2v-0.3c0-0.3-0.1-0.6-0.2-0.8v0.1
		c-0.2,0.1-0.1,0.3-0.1,0.6v0.3L352.6,282l13.4,42h-0.1v0.1L365.4,324.3z"/>
	<path class="st0" d="M326.1,199.2l9.3,29.2L326.1,199.2V199c-0.1-0.3-0.3-0.5-0.6-0.7c0.3,0.2,0.4,0.4,0.5,0.7
		C326.1,199.1,326.1,199.1,326.1,199.2L326.1,199.2z"/>
	<path class="st0" d="M365.2,238l0.1,0.1c0,0,0,0,0.1,0C365.3,238.1,365.3,238,365.2,238z"/>
	<path class="st0" d="M365.4,238.1c0.1,0.1,0.3,0.3,0.3,0.5C365.6,238.4,365.5,238.2,365.4,238.1z"/>
	<path class="st0" d="M198.1,325.1V325C198.1,325,198.1,325,198.1,325.1z"/>
	<path class="st0" d="M198.1,324.9c0-0.1,0-0.2,0-0.2C198,324.8,198.1,324.9,198.1,324.9z"/>
	<path class="st0" d="M198.6,325.8L198.6,325.8c-0.2-0.2-0.3-0.4-0.5-0.7c0.1,0.4,0.4,0.7,0.7,0.9L198.6,325.8L198.6,325.8z"/>
	<polygon class="st0" points="211.3,282.2 198,324.1 198,324.2 198.1,323.9 	"/>
	<path class="st0" d="M198,324.4L198,324.4c0,0.2,0,0.2,0,0.3C198,324.6,198,324.5,198,324.4L198,324.4z"/>
	<path class="st0" d="M228.3,228.5l-29.1,9.2l-0.4,0.1l-0.2,0.2c0.1-0.1,0.2-0.1,0.3-0.1c0.1-0.1,0.3-0.2,0.4-0.2L228.3,228.5z"/>
	<path class="st0" d="M240.1,198.1L240.1,198.1L240.1,198.1z"/>
	<path class="st0" d="M238.7,365.8L238.7,365.8L238.7,365.8z"/>
	<path class="st0" d="M325.1,198.1c0.1,0,0.1,0.1,0.2,0.1l0,0C325.2,198.1,325.2,198.1,325.1,198.1z"/>
	<polygon class="st0" points="215.2,282 231.3,231.3 282,215.2 332.6,231.3 348.7,281.9 332.6,231.2 281.9,215.1 231.2,231.2 
		215.1,281.9 231.2,332.6 281.9,348.7 231.3,332.6 	"/>
	<polygon class="st0" points="53.4,331.3 78.5,323.3 67.2,287.9 78.4,323.3 	"/>
	<polygon class="st0" points="348.2,0 348.2,0 337.8,33 	"/>
	<polygon class="st0" points="281.9,65.3 281.9,65.3 231.3,49.2 215.7,0 215.7,0 231.2,49.2 	"/>
	<polygon class="st0" points="288,67.1 331.3,53.3 287.9,67.1 	"/>
	<polygon class="st0" points="496.7,4.4 496.7,4.3 485.4,39.8 493.3,42.3 485.5,39.8 	"/>
	<polygon class="st0" points="559.5,67.2 524.1,78.4 516.1,53.4 524.1,78.5 	"/>
	<path class="st0" d="M340.9,223.1h165.6V57.4H340.9V223.1z M343.9,60.4h159.6v159.7H343.9V60.4z"/>
	<polygon class="st0" points="39.8,78.4 4.4,67.2 39.8,78.5 42.4,70.5 	"/>
	<polygon class="st0" points="0,348.2 0,348.2 49.2,332.6 	"/>
	<polygon class="st0" points="76.5,40.4 78.5,39.8 67.2,4.4 78.4,39.8 	"/>
	<polygon class="st0" points="227.1,47.8 213.3,4.3 213.3,4.4 	"/>
	<polygon class="st0" points="276,67.2 240.6,78.4 232.6,53.4 240.6,78.5 	"/>
	<polygon class="st0" points="499.1,0 499.1,0 514.7,49.2 563.9,64.8 563.9,64.8 514.8,49.2 	"/>
	<polygon class="st0" points="511,320.8 514.8,332.7 563.9,348.3 563.9,348.2 514.8,332.6 	"/>
	<polygon class="st0" points="496.7,276.1 503.4,255.1 496.7,276 	"/>
	<polygon class="st0" points="485.5,323.4 510.6,331.4 510.6,331.3 485.5,323.3 	"/>
	<polygon class="st0" points="496.8,287.9 496.8,288 506.4,318 	"/>
	<polygon class="st0" points="67.1,275.9 53.3,232.6 67.1,276 	"/>
	<polygon class="st0" points="559.6,350.7 559.4,350.7 524.1,361.9 516.1,336.9 524.1,362 	"/>
	<path class="st0" d="M523,481.5c-1.1,0-1.6,0.7-1.7,1l-9.4,29.5l-29.1,9.2c-0.5,0.1-0.9,0.4-1.1,0.9c-0.1,0.3-0.2,0.6-0.2,1v0.2
		l13,40.6h4.7h0.1l15.5-49.1l22.4-7.2l26.7-8.5v-4.6l-40.7-13L523,481.5L523,481.5z M496.7,559.5l-11.3-35.4V524l25.1-7.9
		L496.7,559.5z M559.5,496.8L559.5,496.8l-43.3,13.8l0,0l0,0l8-25.1L559.5,496.8z"/>
	<path class="st0" d="M41,82.5c0.7,0,1.2-0.5,1.4-0.6l0.3-0.3L52.1,52l29.1-9.2c0.8-0.2,1.4-0.9,1.4-1.8v-0.3L69.6,0h-4.7L49.2,49.2
		L0,64.8v4.7l40.8,13H41z M67.2,4.4l11.3,35.4l-2,0.6l-6,1.9l-17.1,5.5L67.2,4.4z M39.8,78.5L4.4,67.2l43.4-13.8l-5.4,17.1
		L39.8,78.5L39.8,78.5z"/>
	<path class="st0" d="M522.6,198c-0.6,0.1-1.1,0.5-1.4,1l-9.4,29.5l-29.1,9.2c-0.8,0.2-1.4,0.9-1.4,1.8v0.3l13.5,42.2l-13.4,41.9
		l-0.1,0.3v0.2c0,0.3,0.1,0.6,0.2,0.8c0.1,0.2,0.3,0.4,0.4,0.5l0.3,0.3l29.6,9.4l9.4,29.6l0.3,0.3c0.1,0.1,0.2,0.2,0.5,0.4v0.1
		c0.2,0.1,0.5,0.2,0.9,0.2h0.2l40.8-13v-4.6l-49.3-15.7l-3.8-11.9L498.5,282l16.1-50.7l49.1-15.6l0.2-0.1V211l-40.5-12.9
		C523.3,198,523,197.9,522.6,198z M559.4,350.6l0.2,0.1L524.1,362l-8-25.1L559.4,350.6z M489.2,252.2l-3.7-11.5l25-7.9l-7.1,22.3
		l-6.7,21v0.1l-0.1-0.2L489.2,252.2z M510.6,331.4l-25.1-8v-0.1l11.3-35.3v-0.1l9.6,30.1v0.1L510.6,331.4L510.6,331.4z M559.6,213.3
		l-43.5,13.8l8-25.1L559.6,213.3z"/>
	<path class="st0" d="M223.6,221.8V58.6c0-1-0.8-1.8-1.8-1.8H58.6c-1,0-1.8,0.8-1.8,1.8v163.2c0,1,0.8,1.8,1.8,1.8h163.2
		C222.8,223.6,223.6,222.8,223.6,221.8z M220,220H60.4V60.4H220V220z"/>
	<path class="st0" d="M221.8,340.3H58.6c-1,0-1.8,0.8-1.8,1.8v163.2c0,1,0.8,1.8,1.8,1.8h163.2c1,0,1.8-0.8,1.8-1.8V342.1
		C223.6,341.1,222.8,340.3,221.8,340.3z M220,503.5H60.4V343.9H220V503.5z"/>
	<path class="st0" d="M366,522.9c0-0.7-0.4-1.2-0.6-1.4l-0.3-0.3l-29.6-9.4l-9.4-29.6l-0.3-0.3c-0.2-0.2-0.6-0.6-1.5-0.6h-0.2
		l-42.2,13.5L240,481.5c-0.3-0.1-0.6-0.2-1-0.1c-0.6,0.1-1.1,0.5-1.4,1l-9.4,29.5l-29.1,9.2c-0.8,0.2-1.4,0.9-1.4,1.9v0.2l13,40.7
		h4.7l15.7-49.2l16.1-5.1l34.6-11l50.7,16.1l15.6,49.1v0.1h0.2h4.5l12.9-40.3C366,523.4,366,523.1,366,522.9z M213.3,559.5L202,524
		l25.1-7.9L213.3,559.5z M232.7,510.6L232.7,510.6L232.7,510.6l8-25.1l35.3,11.3h0.1L232.7,510.6z M287.9,496.8L287.9,496.8
		l35.4-11.3l8,25.1L287.9,496.8z M350.6,559.6l-13.8-43.4l25.1,7.9L350.6,559.6z"/>
	<path class="st0" d="M82.5,522.9c0-0.7-0.4-1.2-0.6-1.4l-0.3-0.3L52,511.8l-9.4-29.6l-0.3-0.3c-0.2-0.2-0.6-0.6-1.5-0.6h-0.2
		L0,494.4v4.7l49.2,15.6l15.6,49.1v0.1h4.7l13-40.6V522.9z M4.4,496.7l35.4-11.3h0.1l2.5,7.9l5.4,17.2L4.4,496.7z M67.2,559.5
		l-13.9-43.4l25.1,8L67.2,559.5z"/>
	<path class="st0" d="M41,365.9L41,365.9c0.7,0.1,1.2-0.4,1.4-0.5l0.3-0.3l9.4-29.6l29.1-9.2c0.8-0.2,1.4-0.9,1.4-1.9v-0.2L69.2,282
		l13.3-42.3v-0.3c0-0.7-0.4-1.2-0.6-1.4l-0.3-0.3L52,228.3l-9.2-29.2c-0.2-0.8-0.9-1.3-1.9-1.3h-0.2L0,210.9v4.7l49.2,15.6
		l16.1,50.7l-16.1,50.7L0,348.2v4.7l40.8,13L41,365.9L41,365.9z M4.3,213.3L39.8,202l8,25.1L4.3,213.3z M78.4,240.6l-11.3,35.3v0.1
		l-13.8-43.4L78.4,240.6z M67.2,287.9l11.3,35.4l-25.1,8L67.2,287.9z M39.8,361.9L4.4,350.6l24.9-7.9l18.6-5.9l-8,25.1L39.8,361.9
		L39.8,361.9z"/>
	<path class="st0" d="M499.1,0h-4.6l-12.6,39.5h-0.5v1.3l-0.5,1.7h1.3l0.1,0.1l29.6,9.4l9.2,29.2c0.2,0.8,0.9,1.3,1.9,1.3h0.2
		l40.7-12.9v-4.7l-49.2-15.6L499.1,0z M493.3,42.3l-7.9-2.5l11.3-35.5l13.8,43.5L493.3,42.3z M559.5,67.2l-35.4,11.3l-8-25.1
		L559.5,67.2z"/>
	<path class="st0" d="M198.1,41H198c0,0.7,0.5,1.2,0.6,1.4l0.3,0.3l29.6,9.4l9.2,29.2c0.1,0.5,0.4,0.9,0.9,1.1
		c0.3,0.1,0.6,0.2,1,0.2h0.2L282,69.2l41.9,13.4l0.3,0.1h0.2c0.7,0,1.2-0.5,1.4-0.6l0.3-0.3l9.4-29.6l29.1-9.2
		c0.8-0.2,1.4-0.9,1.4-1.8v-0.3L353,0h-4.7l-10.5,33l-5.2,16.2l-50.7,16.1l0,0l0,0l-50.7-16.1L215.7,0H211l-12.9,40.8V41z
		 M350.6,4.4l11.3,35.5l-25.1,8L350.6,4.4z M323.3,78.4L288,67.1h-0.1l43.4-13.8L323.3,78.4z M276,67.2l-35.4,11.3l-8-25.1L276,67.2
		z M213.3,4.3l13.8,43.5l-25.1-8L213.3,4.3z"/>
	<path class="st0" d="M366,334.1v-9.6h-0.6l-0.1-0.2h0.1l0.5-0.2V324l-13.4-41.9l13.3-42.3v-0.3c0-0.3-0.1-0.5-0.1-0.7v-0.1h-0.1
		c-0.1-0.3-0.3-0.4-0.4-0.6l-0.1-0.1l-0.2-0.2l-29.5-9.4h-0.1l-9.2-29.2l0,0c0-0.1,0-0.1-0.1-0.2c-0.1-0.3-0.3-0.6-0.5-0.7
		c-0.1-0.1-0.2-0.1-0.2-0.1l0,0l0,0c-0.1,0-0.1-0.1-0.2-0.1c-0.3-0.1-0.5-0.2-0.8-0.2h-0.2l-42.2,13.4l-41.8-13.2l0,0l0,0
		c-0.1-0.1-0.3-0.1-0.4-0.1c-0.2,0-0.4,0-0.6,0c-0.5,0.1-0.9,0.3-1.2,0.7c0,0.1-0.1,0.1-0.1,0.2c0,0.1-0.1,0.1-0.1,0.1l-9.3,29.4
		v0.1h-0.1l-29,9.2c-0.2,0-0.3,0.1-0.4,0.2c0,0,0,0-0.1,0c-0.5,0.3-0.8,0.9-0.8,1.6v0.3l13.4,42.1v0.1l-0.1,0.2l-13.2,41.7l-0.1,0.3
		l0,0v0.2l0,0l0,0c0,0.7,0.5,1.2,0.6,1.4l0,0l0.1,0.1l0.1,0.1l0.1,0.1l29.5,9.4h0.1l9.2,29.2c0.1,0.4,0.3,0.7,0.6,0.9
		c0.1,0.1,0.2,0.1,0.2,0.1c0.1,0,0.1,0.1,0.2,0.1l0,0l0,0c0.3,0.1,0.5,0.2,0.8,0.2h0.2l42.2-13.4l41.9,13.4l0.3,0.1h0.2
		c0.2,0,0.4,0,0.5-0.1c0.1,0,0.2-0.1,0.4-0.2l0,0c0.2-0.1,0.4-0.3,0.4-0.4l0.2-0.2l0.1-0.1l0.1-0.5l9.5-29.1l28.1-8.9L366,334.1z
		 M362,240.6l-11.3,35.5l-0.1-0.2l-13.8-43.3L362,240.6z M323.3,202l8,25.1l-43.5-13.8L323.3,202z M240.7,202l35.4,11.3l-43.4,13.8
		L240.7,202z M202,240.6l25.1-8l-13.8,43.5L202,240.6z M202,323.2l11.3-35.4l13.8,43.4L202,323.2z M240.6,361.9l-8-25.1l43.5,13.8
		L240.6,361.9z M323.2,361.9l-35.4-11.3l43.4-13.8L323.2,361.9z M332.6,332.6l-50.7,16.1l-50.7-16.1l-16.1-50.7l16.1-50.7l50.7-16.1
		l50.7,16.1l16.1,50.7L332.6,332.6z M336.8,331.3l13.8-43.5l11.3,35.5L336.8,331.3z"/>
	<path class="st0" d="M340.3,342.1v163.2c0,1,0.8,1.8,1.8,1.8h163.2c1,0,1.8-0.8,1.8-1.8V342.1c0-1-0.8-1.8-1.8-1.8H342.1
		C341.1,340.3,340.3,341.1,340.3,342.1z M343.9,343.9h159.6v159.6H343.9V343.9z"/>
</g>
</svg>
