<?xml version="1.0" encoding="utf-8"?>
<!-- Generator: Adobe Illustrator 21.1.0, SVG Export Plug-In . SVG Version: 6.00 Build 0)  -->
<svg version="1.1" id="Layer_1" xmlns="http://www.w3.org/2000/svg" xmlns:xlink="http://www.w3.org/1999/xlink" x="0px" y="0px"
	 viewBox="0 0 563.9 563.9" style="enable-background:new 0 0 563.9 563.9;" xml:space="preserve">
<style type="text/css">
	.st0{fill:#202020;}
</style>
<title>Artboard 1</title>
<g>
	<polygon class="st0" points="331.3,510.6 288,496.8 287.8,496.8 331.4,510.7 329.5,505 	"/>
	<polygon class="st0" points="520.4,66.9 520.3,66.8 524.1,78.5 537.2,74.3 524.1,78.4 	"/>
	<polygon class="st0" points="503.3,231.2 503.3,231.2 511.9,228.5 514.6,219.9 514.6,219.9 511.9,228.4 	"/>
	<polygon class="st0" points="491.5,259.7 496.7,276.1 496.7,276 491.6,259.7 501.6,235.5 510.5,232.6 510.6,232.5 501.6,235.4 	"/>
	<polygon class="st0" points="518.9,62.4 516.1,53.4 516,53.4 	"/>
	<polygon class="st0" points="491.6,304.1 491.6,304.2 493.6,298 	"/>
	<polygon class="st0" points="496.7,287.9 510.6,331.3 510.6,331.3 496.8,287.8 	"/>
	<polygon class="st0" points="232.6,510.6 235.5,501.6 235.5,501.6 232.6,510.6 276.1,496.8 276,496.7 	"/>
	<polygon class="st0" points="259.8,491.6 259.7,491.6 266,493.6 	"/>
	<polygon class="st0" points="485.5,39.8 485.5,39.8 489.9,26.1 497,43.5 497.2,43.5 489.9,26 	"/>
	<polygon class="st0" points="496.7,4.4 496.7,4.4 491.5,20.7 501.5,44.9 501.6,44.9 491.6,20.7 	"/>
	<polygon class="st0" points="281.9,482.3 281.9,482.3 264.8,489.4 281.9,494.9 281.9,494.9 264.9,489.4 	"/>
	<polygon class="st0" points="231.2,219.9 223.2,223.2 231.2,219.9 228.4,228.4 219.9,231.2 223.2,223.2 219.9,231.2 228.5,228.5 	
		"/>
	<polygon class="st0" points="332.8,219.8 332.8,219.9 340.7,223.2 343.9,231.1 344.1,231.1 340.8,223.1 	"/>
	<polygon class="st0" points="350.3,43.5 357.5,26.1 361.9,39.8 361.9,39.8 357.5,26 350.2,43.5 	"/>
	<polygon class="st0" points="344.1,332.8 344,332.8 340.8,340.8 332.8,344 332.8,344.1 340.8,340.8 	"/>
	<polygon class="st0" points="219.9,332.8 228.4,335.5 231.2,344 223.2,340.7 223.2,340.8 231.2,344.1 228.5,335.5 219.9,332.8 
		222.4,338.8 	"/>
	<polygon class="st0" points="350.7,276.1 355.9,259.7 355.9,259.7 350.7,275.9 	"/>
	<polygon class="st0" points="336.8,232.6 336.8,232.6 345.8,235.5 	"/>
	<polygon class="st0" points="497.1,236.9 489.9,254.4 489.9,254.4 497.2,236.9 	"/>
	<polygon class="st0" points="497.1,520.4 489.9,537.9 489.9,537.9 497.2,520.4 	"/>
	<polygon class="st0" points="344,514.6 335.5,511.9 332.8,503.4 332.7,503.3 335.4,511.9 	"/>
	<polygon class="st0" points="497.2,327 489.9,309.5 489.9,309.5 497.1,327 	"/>
	<polygon class="st0" points="491.5,543.2 496.7,559.6 496.7,559.5 491.6,543.2 501.6,518.9 510.6,516.1 510.6,516 501.6,518.9 	"/>
	<path class="st0" d="M502.8,223.6h-0.2l-3.6,8.9l-16.6,5.3L482,238c-0.2,0.2-0.6,0.6-0.6,1.4v0.3l6.3,19.8l-9.1,22v0.8l9.1,22
		l-6.3,19.8v0.3c0,0.7,0.4,1.3,1,1.6l-0.2-0.2c-0.1-0.1-0.3-0.3-0.4-0.6h-0.1v-0.1c-0.1-0.2-0.1-0.4-0.1-0.7v-0.2l0.1-0.3l6.2-19.6
		l-9.1-22v-0.8l9.1-22l-6.3-19.8v-0.3c0-0.3,0.1-0.5,0.2-0.8v-0.1h0.1c0.2-0.4,0.6-0.7,1.1-0.8l16.1-5.2L502.8,223.6z"/>
	<polygon class="st0" points="344.8,340.2 344.7,340.4 502.8,340.4 499.1,331.4 498.9,331.4 502.6,340.2 	"/>
	<polygon class="st0" points="39.8,361.9 39.8,361.9 26.1,357.5 43.5,350.3 43.5,350.2 26,357.5 	"/>
	<polygon class="st0" points="52,335.5 52,335.5 60.6,332.8 	"/>
	<polygon class="st0" points="57.3,340.7 49.3,344 49.3,344.1 57.3,340.8 	"/>
	<polygon class="st0" points="219.8,514.6 219.9,514.6 223.2,506.6 231.1,503.4 231.1,503.3 223.1,506.6 	"/>
	<polygon class="st0" points="67.2,4.4 67.2,4.4 72.4,20.7 	"/>
	<polygon class="st0" points="62.4,45 53.4,47.9 53.4,47.9 	"/>
	<polygon class="st0" points="43.5,497 26.1,489.9 39.8,485.5 39.8,485.5 26,489.9 43.5,497.2 	"/>
	<polygon class="st0" points="26.2,74.1 43.5,66.9 43.5,66.7 26,74 	"/>
	<polygon class="st0" points="67.2,276 53.3,232.6 53.3,232.6 67.1,276.1 	"/>
	<polygon class="st0" points="62.4,328.5 53.4,331.3 53.4,331.4 	"/>
	<polygon class="st0" points="57.3,223.2 60.6,231.2 52,228.4 49.3,219.9 57.3,223.2 49.3,219.9 52,228.5 60.6,231.2 	"/>
	<polygon class="st0" points="20.7,491.6 45,501.6 45,501.6 20.7,491.5 4.3,496.7 47.9,510.6 4.4,496.7 	"/>
	<polygon class="st0" points="43.5,213.6 26.1,206.4 39.8,202 39.8,202 26,206.4 43.5,213.7 	"/>
	<polygon class="st0" points="4.5,350.7 4.3,350.7 20.7,355.9 45,345.8 20.7,355.9 	"/>
	<polygon class="st0" points="331.3,53.3 331.3,53.3 287.9,67.1 288,67.1 	"/>
	<polygon class="st0" points="276,67.2 276,67.2 259.7,72.4 	"/>
	<polygon class="st0" points="235.5,62.4 232.6,53.4 232.6,53.4 	"/>
	<polygon class="st0" points="218.1,518.9 227.1,516.1 227.1,516 	"/>
	<polygon class="st0" points="213.3,559.5 213.3,559.5 208.1,543.2 	"/>
	<polygon class="st0" points="345.8,45 345.8,45 345,45.2 	"/>
	<polygon class="st0" points="350.6,4.4 350.6,4.4 336.8,47.9 336.8,47.9 	"/>
	<polygon class="st0" points="340.8,57.3 344.1,49.3 344,49.3 340.7,57.3 	"/>
	<path class="st0" d="M335.5,52l-2.7,8.6L335.5,52z"/>
	<polygon class="st0" points="213.7,520.3 202,524.1 202,524.1 213.6,520.4 	"/>
	<polygon class="st0" points="66.9,43.5 74.1,26.2 74,26 66.7,43.5 	"/>
	<path class="st0" d="M53.3,516.1l13.9,43.5L53.3,516.1z"/>
	<path class="st0" d="M78.5,524.1l-11.7-3.7l7.3,17.5L78.5,524.1z M66.8,520.4l11.6,3.7l-4.3,13.8L66.8,520.4z"/>
	<polygon class="st0" points="223.2,57.3 219.9,49.3 228.4,52 231.2,60.6 223.2,57.3 231.2,60.6 228.5,52 219.9,49.3 	"/>
	<polygon class="st0" points="202,39.8 202,39.8 206.4,26.1 213.6,43.5 213.7,43.5 206.4,26 	"/>
	<polygon class="st0" points="227.1,47.8 213.3,4.4 213.3,4.4 	"/>
	<path class="st0" d="M323.7,198.2l-19.4,6.2l0,0l19.8-6.3h0.2c0.3,0,0.5,0,0.7,0.1c-0.1-0.1-0.3-0.1-0.5-0.1
		C324.3,198,324,198.1,323.7,198.2z"/>
	<path class="st0" d="M237.8,81.5c0.3,0.6,0.8,1,1.4,1c0.2,0,0.4,0,0.6,0h-0.1c-0.4,0-0.7-0.1-1-0.2l0,0l0,0
		c-0.4-0.2-0.8-0.6-0.9-1.1l-2.7-8.4l2.7,8.5V81.5z"/>
	<polygon class="st0" points="281.5,85.3 281.6,85.3 259.6,76.2 259.5,76.2 281.1,85.2 	"/>
	<polygon class="st0" points="340.4,219.3 340.4,61.3 340.3,61.4 340.3,219.2 	"/>
	<polygon class="st0" points="259.6,204.4 259.6,204.4 281.6,195.3 281.5,195.3 	"/>
	<path class="st0" d="M324.2,82.5c-0.1,0-0.3-0.1-0.4-0.1l-19.4-6.2l0,0L324.2,82.5C324.1,82.5,324.2,82.5,324.2,82.5z"/>
	<polygon class="st0" points="223.5,61.3 223.5,219.2 223.6,219.1 223.6,61.4 	"/>
	<polygon class="st0" points="61.3,340.5 219.3,340.5 219.2,340.3 61.4,340.3 	"/>
	<path class="st0" d="M198.9,237.8l-0.3,0.3c-0.2,0.2-0.6,0.6-0.6,1.4v0.3l2.4,7.6l-2.3-7.4v-0.2c0-0.3,0.1-0.6,0.2-0.9l-0.1-0.2
		l0.2-0.1c0.2-0.4,0.6-0.6,1-0.7l16.1-5.2l3.7-9H219l-3.6,8.8L198.9,237.8z"/>
	<polygon class="st0" points="76.2,304.3 76.2,304.4 82.5,324.2 82.5,324.1 	"/>
	<polygon class="st0" points="195.3,281.7 204.4,259.7 204.4,259.6 195.3,281.5 	"/>
	<path class="st0" d="M81.1,237.6L65,232.5l-3.6-8.8h-0.1l3.7,9l16.6,5.2l0.3,0.3c0.1,0.1,0.2,0.2,0.4,0.5l0,0l0,0
		c0.1,0.2,0.2,0.5,0.2,0.8v-0.1C82.5,238.5,81.9,237.8,81.1,237.6z"/>
	<polygon class="st0" points="198.1,324.4 198.2,324 204.4,304.5 204.4,304.4 198.1,324.1 	"/>
	<polygon class="st0" points="76.2,259.6 76.2,259.6 85.3,281.6 85.3,281.5 	"/>
	<polygon class="st0" points="66.8,327.1 78.4,323.3 78.4,323.3 66.9,327 	"/>
	<path class="st0" d="M66.8,236.9l7.3,17.5l4.4-13.9L66.8,236.9z M74.1,254.4l-7.3-17.5l11.6,3.7L74.1,254.4z"/>
	<path class="st0" d="M254.4,74.1l-17.5-7.3l3.7,11.7L254.4,74.1z M236.9,66.8l17.5,7.3l-13.8,4.3L236.9,66.8z"/>
	<polygon class="st0" points="328.4,345.8 304.2,355.9 288,350.7 287.9,350.7 304.2,355.9 328.4,345.9 	"/>
	<polygon class="st0" points="331.3,336.9 331.3,336.9 330.9,338.1 	"/>
	<polygon class="st0" points="309.5,74.1 309.5,74.1 323.3,78.5 327.1,66.8 327,66.9 323.3,78.4 	"/>
	<polygon class="st0" points="518.9,345.8 516.1,336.8 516,336.8 	"/>
	<polygon class="st0" points="309.7,357.6 309.6,357.6 323.4,362 327.1,350.3 327,350.4 323.3,361.9 	"/>
	<polygon class="st0" points="559.4,496.8 516.1,510.6 518.9,501.6 516.1,510.6 559.5,496.8 	"/>
	<polygon class="st0" points="524.1,361.9 520.4,350.3 520.4,350.3 524.1,362 537.9,357.6 537.8,357.6 	"/>
	<polygon class="st0" points="236.9,497.1 240.6,485.5 254.4,489.9 254.4,489.9 240.6,485.4 	"/>
	<polygon class="st0" points="537.9,489.9 520.4,497.1 520.4,497.2 	"/>
	<polygon class="st0" points="309.5,489.8 309.6,489.8 323.3,485.5 327,497.1 327,497.1 323.3,485.4 	"/>
	<polygon class="st0" points="503.4,332.8 511.9,335.5 514.6,344 514.6,344 511.9,335.4 503.3,332.7 	"/>
	<path class="st0" d="M239.7,481.4c0.1,0,0.3,0.1,0.4,0.1l19.4,6.2l0,0l-19.7-6.3L239.7,481.4L239.7,481.4z"/>
	<path class="st0" d="M237.8,365c0-0.1-0.1-0.1-0.1-0.2L237.8,365C237.8,364.9,237.8,364.9,237.8,365z"/>
	<path class="st0" d="M237.7,364.8c0-0.1-0.1-0.1-0.1-0.2l-0.9-2.7L237.7,364.8L237.7,364.8z"/>
	<polygon class="st0" points="282.3,478.6 304.3,487.7 304.3,487.7 282.4,478.6 	"/>
	<path class="st0" d="M326.2,482.6l-0.1-0.2c-0.2-0.3-0.6-1-1.7-1h-0.1c0.4,0,0.7,0.1,0.9,0.2l0,0v0.1c0.2,0.1,0.4,0.3,0.5,0.4
		l0.3,0.3l5.3,16.7l9,3.7l0,0l-8.9-3.8L326.2,482.6z"/>
	<polygon class="st0" points="223.5,344.7 223.5,502.6 223.6,502.5 223.6,344.8 	"/>
	<path class="st0" d="M331.3,348.4l-5.3,16.5c0,0.1-0.1,0.2-0.2,0.3l0.2-0.2L331.3,348.4z"/>
	<polygon class="st0" points="259.5,359.6 240.1,365.8 240.1,365.8 	"/>
	<path class="st0" d="M239.1,365.9c0.2,0,0.4,0,0.6,0h-0.2c-0.6,0-1.2-0.3-1.5-0.7C238.3,365.6,238.7,365.8,239.1,365.9z"/>
	<polygon class="st0" points="489.6,548.7 494.4,563.9 494.7,563.9 489.7,548.4 	"/>
	<path class="st0" d="M309.5,206.4l17.5,7.3L309.5,206.4z"/>
	<polygon class="st0" points="287.8,213.2 288,213.3 304.2,208.1 328.5,218.1 331.3,227.1 331.4,227.1 328.5,218.1 304.2,208 	"/>
	<polygon class="st0" points="355.9,304.2 350.7,287.9 350.7,288 355.9,304.2 345.8,328.5 336.9,331.3 336.9,331.4 345.9,328.5 	"/>
	<polygon class="st0" points="282,352.5 299,357.9 299.1,357.9 282,352.5 264.9,357.9 265,357.9 	"/>
	<path class="st0" d="M198.2,325.3L198.2,325.3L198.2,325.3z"/>
	<polygon class="st0" points="206.4,309.5 206.4,309.5 213.7,327 	"/>
	<polygon class="st0" points="235.5,345.8 235.5,345.8 232.6,336.8 	"/>
	<polygon class="st0" points="348.8,282 332.7,231.3 282,215.2 282,215.2 332.6,231.3 348.7,282 332.6,332.6 282,348.7 231.3,332.6 
		215.2,282 215.2,282 231.3,332.7 282,348.8 332.7,332.7 	"/>
	<polygon class="st0" points="206,264.9 206,265 211.4,282 206,299 206,299.1 211.4,282 	"/>
	<path class="st0" d="M198.9,42.6l-0.3-0.3c-0.1-0.1-0.2-0.2-0.3-0.3C198.5,42.3,198.7,42.5,198.9,42.6z"/>
	<path class="st0" d="M215.5,48L215.5,48l-16.6-5.4c0.2,0.1,0.3,0.2,0.5,0.2L215.5,48z"/>
	<polygon class="st0" points="76.2,20.9 84.8,0.1 195.6,0.1 195.6,0 84.8,0 	"/>
	<path class="st0" d="M81.6,42.7l0.3-0.3c0.2-0.2,0.6-0.6,0.6-1.4l0,0c0,0.9-0.6,1.6-1.4,1.8L65,47.9l-3.7,9l0,0L65,48L81.6,42.7z"
		/>
	<polygon class="st0" points="210.9,0 210.9,0 205.9,15.6 	"/>
	<polygon class="st0" points="69.5,0 69.5,0 74.5,15.6 	"/>
	<polygon class="st0" points="81,0 81,0 74.5,15.6 	"/>
	<polygon class="st0" points="281.9,65.3 282,65.3 231.3,49.2 215.7,0 215.6,0 231.2,49.2 	"/>
	<polygon class="st0" points="348.2,0 348.2,0 337.8,33 	"/>
	<polygon class="st0" points="15.5,206 0,210.9 0,211 15.6,206 	"/>
	<polygon class="st0" points="357.9,15.5 353,0 353,0 	"/>
	<polygon class="st0" points="65.3,282 49.2,231.3 65.3,282 49.2,332.6 0,348.2 0,348.3 49.2,332.7 	"/>
	<polygon class="st0" points="0,81 0,81 15.6,74.5 	"/>
	<polygon class="st0" points="0,69.5 0,69.5 15.6,74.5 	"/>
	<path class="st0" d="M42.6,199L42.6,199c0,0,0.1,0.2,0.1,0.3l0.7,2.2l-0.7-2.3L42.6,199z"/>
	<path class="st0" d="M40.7,82.5c-0.1,0-0.3-0.1-0.4-0.1L40.7,82.5L40.7,82.5z"/>
	<path class="st0" d="M47.8,65.4l-5.1,15.9c0-0.1,0.1-0.1,0.1-0.1L47.8,65.4z"/>
	<path class="st0" d="M41.3,198c-0.2,0-0.4,0-0.6,0h0.2c0.6,0,1.2,0.3,1.5,0.7C42.1,198.3,41.7,198.1,41.3,198z"/>
	<polygon class="st0" points="40.3,198.1 40.3,198.1 20.9,204.3 0,195.7 0,195.7 20.9,204.3 	"/>
	<polygon class="st0" points="548.4,357.9 563.9,353 563.9,352.9 548.3,357.9 	"/>
	<path class="st0" d="M523.2,365.9H523c-0.3,0-0.6-0.1-0.8-0.2h-0.1v-0.1c-0.3-0.1-0.4-0.3-0.5-0.4l-0.3-0.3l-0.1-0.4l-5.2-16.2
		l-9-3.7l0,0l9,3.8l5.2,16.2l0.1,0.2c0.2,0.3,0.6,1,1.7,1L523.2,365.9l19.8-6.2l20.9,8.6v-0.1l-20.9-8.6L523.2,365.9z"/>
	<polygon class="st0" points="548.5,205.8 563.9,199.4 563.9,199.2 548.3,205.7 	"/>
	<polygon class="st0" points="344.7,56.9 502.6,56.9 502.5,56.8 344.8,56.8 	"/>
	<path class="st0" d="M365.9,40.7V41c0,0.9-0.6,1.6-1.4,1.8L348.4,48l-3.1,7.6l3.2-7.6l16.6-5.3l0.3-0.3c0.2-0.2,0.6-0.6,0.6-1.4
		L365.9,40.7l-6.2-19.8L368.3,0h-0.1l-8.6,20.9L365.9,40.7z"/>
	<polygon class="st0" points="498.6,281.8 498.6,281.9 514.8,231.3 563.9,215.7 563.9,215.5 514.7,231.1 	"/>
	<polygon class="st0" points="514.7,332.5 514.8,332.5 506.5,306.6 	"/>
	<polygon class="st0" points="499.1,0 499.1,0 514.7,49.2 563.9,64.8 563.9,64.8 514.8,49.2 	"/>
	<polygon class="st0" points="563.9,84.8 563.9,84.8 543,76.2 	"/>
	<path class="st0" d="M521.2,81.3c0-0.1,0-0.1-0.1-0.2L516,65L521.2,81.3L521.2,81.3z"/>
	<path class="st0" d="M521.3,81.6c0-0.1-0.1-0.1-0.1-0.2L521.3,81.6C521.3,81.5,521.3,81.5,521.3,81.6z"/>
	<path class="st0" d="M522.6,82.5c0.2,0,0.4,0,0.6,0H523c-0.6,0-1.2-0.3-1.5-0.7C521.8,82.2,522.2,82.4,522.6,82.5z"/>
	<polygon class="st0" points="563.9,81 563.9,81 548.3,74.5 	"/>
	<polygon class="st0" points="563.9,69.5 563.9,69.5 548.3,74.5 	"/>
	<polygon class="st0" points="358.1,548.6 364.5,563.9 364.6,563.9 358.2,548.4 	"/>
	<polygon class="st0" points="15.5,489.5 0,494.4 0,494.5 15.6,489.5 	"/>
	<polygon class="st0" points="204.3,543.1 195.7,563.9 195.7,563.9 	"/>
	<polygon class="st0" points="76.2,543.1 84.8,563.9 84.8,563.9 	"/>
	<path class="st0" d="M81.1,521.1L65,516l-3.6-8.9l0,0l3.7,9l16.6,5.3l0.3,0.3c0.1,0.1,0.3,0.2,0.4,0.5l0,0l0,0
		c0.1,0.2,0.2,0.5,0.2,0.8v-0.1C82.5,522,81.9,521.3,81.1,521.1z"/>
	<path class="st0" d="M199.2,521.2l-0.4,0.1l-0.3,0.3c-0.2,0.2-0.6,0.6-0.6,1.5v0.1c0-0.4,0.1-0.7,0.2-1l0,0l0,0
		C198.3,521.7,198.7,521.4,199.2,521.2l16.1-5.1l3.7-9l0,0l-3.6,8.9L199.2,521.2z"/>
	<polygon class="st0" points="308.3,507 332.6,514.8 348.2,563.9 348.4,563.9 332.8,514.8 	"/>
	<polygon class="st0" points="206,548.4 210.9,563.9 211,563.9 	"/>
	<path class="st0" d="M40.7,481.5h0.2c0.8,0,1.3,0.5,1.5,0.6l0.3,0.3L48,499l9,3.7v-0.1l-9-3.7l-5.2-16.2l-0.1-0.2
		c-0.2-0.3-0.6-1-1.7-1L40.7,481.5l-19.8,6.2L0,479.1v0.1l20.9,8.6L40.7,481.5z"/>
	<path class="st0" d="M481.7,523.3v-0.2c0-0.2,0-0.5,0.1-0.7l-0.1-0.3l0.3-0.1c0.2-0.4,0.6-0.7,1.1-0.8l16.1-5.2l3.7-9h-0.3
		l-3.6,8.9l-16.2,5.2l-0.4,0.1l-0.3,0.3c-0.2,0.2-0.6,0.6-0.6,1.5v0.2l6.3,19.8l-8.6,20.9h0.3l8.6-20.8L481.7,523.3z"/>
	<path class="st0" d="M348.7,516.1L348.7,516.1l15.9,5.1l0,0L348.7,516.1z"/>
	<polygon class="st0" points="0,353 0,353 15.6,358 	"/>
	<path class="st0" d="M499.1,0h-4.6l-5,15.6L482.9,0H479l8.6,20.9l-6.3,19.8V41c0,0.7,0.4,1.2,0.6,1.4l0.3,0.3l16.6,5.3l3.6,8.9V57
		H344.7v-0.1l0.5-1.3l3.1-7.6l16.1-5.2c0.8-0.2,1.4-0.9,1.4-1.8v-0.3l-6.3-19.8L368.2,0h-3.9l-6.4,15.5v0.1L353,0h-4.7l-10.5,33
		l-5.2,16.2L282,65.3h-0.1l-50.7-16.1L215.6,0h-4.7l-5,15.6L199.4,0h-3.9v0.1l8.6,20.8L198,40.7V41c0,0.5,0.2,0.8,0.4,1.1
		c0.1,0.1,0.2,0.2,0.3,0.3l0.3,0.3l0,0l0,0l16.6,5.3v0.1l3.7,8.9H61.4l0,0l3.7-9l16.1-5.2c0.8-0.2,1.4-0.9,1.4-1.8v-0.2v-0.1
		L76.3,21v-0.1L84.8,0H81l-6.5,15.6L69.5,0h-4.7L49.2,49.2L0,64.8v4.7l15.6,4.9L0,81v3.9l20.9-8.6l19.4,6.2l0,0
		c0.1,0.1,0.3,0.1,0.4,0.1c0.2,0,0.4,0,0.6,0c0.5-0.1,0.9-0.3,1.2-0.7c0.1-0.1,0.1-0.1,0.1-0.2c0,0,0-0.1,0.1-0.1v-0.2l5.1-15.9
		l0.1-0.4l9-3.7v157.8l-9-3.7l-4.5-13.9l-0.7-2.2c0-0.1-0.1-0.3-0.2-0.4c0-0.1-0.1-0.2-0.1-0.2c-0.3-0.4-0.9-0.7-1.5-0.7h-0.2l0,0
		l-0.4,0.1l-19.4,6.2L0,195.7v3.8l15.5,6.4h0.1L0,211v4.7l49.2,15.6L65.3,282l-16.1,50.7L0,348.3v4.7l15.6,5L0,364.5v3.9l20.9-8.6
		l19.4,6.2c0.3,0.1,0.6,0.2,1,0.1c0.6-0.1,1.1-0.5,1.4-1l5.3-16.5l9-3.8v157.8v0.1l-9-3.7l-5.3-16.6l-0.3-0.3
		c-0.2-0.2-0.6-0.6-1.5-0.6h-0.2l-19.8,6.3L0,479.2v3.9l15.5,6.4h0.1l-15.6,5v4.7l49.2,15.6l15.6,49.1h4.8l4.9-15.5l6.4,15.5h3.9
		l-8.6-20.8V543l6.2-19.5l0.1-0.3v-0.1V523c0-0.3-0.1-0.6-0.2-0.8l0,0l0,0c-0.1-0.2-0.3-0.4-0.4-0.5l-0.3-0.3L65,516.1l-3.7-9l0,0
		H219l0,0l-3.7,9l-16.1,5.2c-0.5,0.1-0.9,0.4-1.1,0.9l0,0l0,0c-0.1,0.3-0.2,0.6-0.2,1v0.1v0.1l6.3,19.7v0.1l-8.6,20.8h3.9l6.4-15.5
		v-0.1l5,15.5h4.8l15.6-49.1l50.7-16.1l26.2,8.3l24.5,7.8l15.6,49.1h4.8l4.9-15.3l0.1-0.2l6.4,15.5h3.9l-8.6-20.8l6.2-19.6l0.1-0.3
		V523c0-0.7-0.4-1.2-0.6-1.4l-0.3-0.3l-0.7-0.2l-15.9-5.1l0,0l-3.8-9h157.6h0.3l-3.7,9l-16.1,5.2c-0.5,0.1-0.8,0.4-1.1,0.8l-0.3,0.1
		l0.1,0.3c-0.1,0.2-0.1,0.4-0.1,0.7v0.2l6.3,19.8l-8.6,20.8h3.9l6.3-15.2l0.2-0.4l5,15.5h4.8l15.6-49.1l48.8-15.7v-4.6l-15.6-5
		l15.6-6.5V479l-20.9,8.6l-19.8-6.3H523c-1.1,0-1.6,0.7-1.7,1l-5.3,16.5l-9,3.7V344.8l0,0l9,3.7l5.2,16.2l0.1,0.4l0.3,0.3
		c0.1,0.1,0.3,0.3,0.5,0.4v0.1h0.1c0.2,0.1,0.5,0.2,0.8,0.2h0.2l19.8-6.3l20.9,8.6v-3.9l-15.5-6.4l-0.1-0.1l15.6-5v-4.7l-49.1-15.6
		h-0.1l-8.2-25.9l-7.9-24.7V282l16.1-50.7l49.2-15.6V211l-15.4-4.9l-0.3-0.1l15.6-6.5v-3.9L543,204l-19.4-6.1
		c-0.3-0.1-0.6-0.2-1-0.1c-0.6,0.1-1.1,0.5-1.4,1l-5.3,16.5l-9,3.7V61.3l9,3.7l5.2,16.1c0,0.1,0,0.1,0.1,0.2l0,0
		c0,0.1,0.1,0.1,0.1,0.2s0.1,0.2,0.1,0.2c0.3,0.4,0.9,0.7,1.5,0.7h0.2l0,0l19.8-6.3l20.9,8.6V81l-15.6-6.5l15.6-4.9v-4.7l-49.2-15.6
		L499.1,0z M43.5,66.9l-3.6,11.5l-13.7-4.3L26,74l17.5-7.3V66.9z M45,62.4l-24.2,10L4.4,67.2l43.4-13.8L45,62.4z M39.8,202L39.8,202
		l3.7,11.6l0,0L26,206.4L39.8,202z M4.4,213.3l16.4-5.2l24.3,10l2.9,9L4.4,213.3z M43.5,350.3l-3.7,11.6l0,0L26,357.5L43.5,350.3
		L43.5,350.3z M45,345.8l-24.3,10.1l-16.4-5.2h0.1l43.4-13.8L45,345.8z M39.8,485.5L39.8,485.5l3.6,11.5v0.1L26,489.9L39.8,485.5z
		 M4.3,496.7l16.4-5.2L45,501.6l0,0l2.9,9L4.3,496.7z M520.4,497.1l3.7-11.6l13.8,4.4l0,0L520.4,497.1L520.4,497.1z M518.9,501.6
		l24.2-10l16.2,5.2h0.1L516,510.6L518.9,501.6z M524.1,362l-3.7-11.7l0,0l17.4,7.2l0.1,0.1L524.1,362z M516.1,336.8l43.4,13.8
		l-16.4,5.2l-24.2-10l0,0L516.1,336.8L516.1,336.8z M524.1,202l13.9,4.4l-17.5,7.3L524.1,202z M518.9,218.1l24.2-10l16.4,5.2
		l-43.4,13.8L518.9,218.1z M497,43.5l-11.5-3.6l0,0l4.4-13.9l7.3,17.5H497z M501.6,44.9L501.6,44.9l-10.1-24.2l5.2-16.4l0,0
		l13.8,43.4L501.6,44.9z M503.5,60.4V220H343.9V60.4H503.5z M489.4,299.1l-7.1-17.1l7.1-17.1l5.5,17.1L489.4,299.1z M489.9,309.5
		l7.3,17.5h-0.1l-11.6-3.7L489.9,309.5L489.9,309.5z M489.9,254.4l-4.4-13.8l11.6-3.6h0.1L489.9,254.4L489.9,254.4z M483,237.7
		c-0.5,0.1-0.9,0.4-1.1,0.8h-0.1v0.1c-0.1,0.2-0.2,0.5-0.2,0.8v0.3l6.3,19.8l-9.1,22v0.8l9.1,22l-6.2,19.6l-0.1,0.3v0.2
		c0,0.3,0.1,0.5,0.1,0.7v0.1h0.1c0.1,0.3,0.3,0.4,0.4,0.6l0.2,0.2l0.1,0.1l16.4,5.2l0.2,0.1l3.7,9h-158l0.1-0.2l3.7-8.9l16.1-5.2
		c0.8-0.2,1.4-0.9,1.4-1.8V324l-6.3-19.8l9.2-22.3l-9.2-22.3l6.3-20v-0.3c0-0.7-0.5-1.2-0.6-1.4l-0.3-0.3l-16.6-5.3l-3.7-8.9h157.7
		h0.2l-3.7,9L483,237.7z M304.2,355.9l-16.4-5.2h0.1l43.3-13.7l0,0l-0.4,1.2l-2.5,7.7v0.1L304.2,355.9z M327.1,350.3l-3.7,11.7
		l-13.9-4.4h0.1l17.3-7.2L327.1,350.3z M235.5,345.8L235.5,345.8l-2.9-9l43.4,13.8l-16.4,5.2L235.5,345.8z M254.4,357.5l-13.9,4.4
		l-3.7-11.7L254.4,357.5z M282,352.5l17.1,5.4H299l-17,7l-17-7h-0.1L282,352.5z M282,348.8l-50.7-16.1L215.2,282l0,0l16.1-50.7
		l50.7-16.1l0,0l50.7,16.1l16.1,50.7l-16.1,50.7L282,348.8z M74.5,264.9l7.1,17.1l-7.1,17.1L69.1,282L74.5,264.9z M74.1,254.4
		l-7.3-17.5l11.7,3.7L74.1,254.4z M78.4,323.3L78.4,323.3l-11.6,3.8V327l7.2-17.4L78.4,323.3z M81.2,326.3c0.6-0.1,1.1-0.7,1.3-1.4
		c0-0.2,0.1-0.3,0.1-0.5v-0.2l-6.3-19.8l0,0l9.1-21.9v-0.1v-0.7l-9.1-22v-0.1l6.3-19.7v-0.1v-0.2c0-0.3-0.1-0.6-0.2-0.8l0,0l0,0
		c-0.1-0.2-0.3-0.4-0.4-0.5l-0.3-0.3L65,232.7l-3.7-9h0.1h157.7h0.2l-3.7,9l-16.1,5.2c-0.4,0.1-0.8,0.3-1,0.7l-0.2,0.1l0.1,0.2
		c-0.1,0.3-0.2,0.6-0.2,0.9v0.2l2.3,7.4l3.9,12.3v0.1l-9.1,22v0.6v0.2l9.1,21.9v0.1l-6.2,19.6l-0.1,0.3l0,0v0.2
		c0,0.2,0.1,0.5,0.1,0.6l0,0l0,0l0,0c0.1,0.3,0.4,0.5,0.5,0.7l0.3,0.3l16.6,5.3l3.6,8.8l0.1,0.2h-158l0.1-0.2l3.6-8.8L81.2,326.3z
		 M227.1,232.6L213.3,276l-5.2-16.4l10-24.2L227.1,232.6z M219.9,231.2l3.3-8l8-3.3l-2.7,8.6L219.9,231.2z M206,299.1V299l-7-17
		l7-17v-0.1l5.4,17.1L206,299.1z M206.4,309.5l7.3,17.5l-11.7-3.7L206.4,309.5L206.4,309.5z M202,240.6l11.7-3.7l-7.3,17.5
		L202,240.6z M218.1,328.4l-10-24.2l5.2-16.4l13.8,43.4L218.1,328.4z M228.5,335.5l2.7,8.6l-8-3.3l0,0l-0.8-1.9l-2.5-6L228.5,335.5z
		 M259.7,208.1l16.4,5.2l-43.4,13.8l2.9-9L259.7,208.1z M236.9,213.7l3.7-11.7l13.9,4.4L236.9,213.7z M328.5,218.1l2.9,9h-0.1
		L288,213.3h-0.2l16.4-5.2L328.5,218.1z M309.5,206.4L309.5,206.4l13.9-4.4l3.7,11.7L309.5,206.4z M282,211.4l-17.1-5.5l17.1-7.1
		l17.1,7.1L282,211.4z M352.5,282l5.5-17.1l7.1,17.1l-7.1,17.1L352.5,282z M361.9,323.3l-11.7,3.7l7.3-17.5L361.9,323.3z
		 M357.5,254.4l-7.3-17.5l11.7,3.7L357.5,254.4z M355.9,259.7L355.9,259.7l-5.2,16.4V276l-13.8-43.3l0,0l9,2.9L355.9,259.7z
		 M343.9,231.1l-8.4-2.7l-2.7-8.5v-0.1l8,3.3l3.3,8H343.9z M332.8,344l2.7-8.5l8.5-2.7h0.1l-3.3,8L332.8,344L332.8,344z
		 M336.9,331.4v-0.1l13.7-43.3v-0.1l5.2,16.4l-10,24.3L336.9,331.4z M361.9,39.8L361.9,39.8l-11.6,3.7l0,0l7.3-17.5L361.9,39.8z
		 M350.6,4.4L350.6,4.4l5.2,16.4l-10,24.3l0,0l-0.8,0.3l-8.2,2.6l0,0L350.6,4.4z M335.5,52L335.5,52l8.5-2.7h0.1l-3.3,8l0,0
		l-7.9,3.3L335.5,52z M331.3,53.3L331.3,53.3l-2.9,9l-24.2,10L288,67.1h-0.1L331.3,53.3z M327.1,66.8l-3.8,11.7l-13.9-4.4l0,0
		L327.1,66.8L327.1,66.8z M282,69.1l17.1,5.4L282,81.6l-17.1-7.1L282,69.1z M232.6,53.4L276,67.2l0,0l-16.4,5.2l-24.2-10l0,0
		L232.6,53.4L232.6,53.4z M254.4,74.1l-13.9,4.4l-3.7-11.7L254.4,74.1z M235,72.8l2.7,8.4c0.1,0.5,0.4,0.9,0.9,1.1l0,0l0,0
		c0.3,0.1,0.6,0.2,1,0.2h0.1h0.1l19.7-6.3h0.1l22,9.1h0.6h0.2l21.9-9.1l0,0l19.4,6.2c0.1,0.1,0.3,0.1,0.4,0.1c0.2,0,0.4,0,0.6,0
		c0.6-0.1,1.1-0.5,1.4-1l5.3-16.4l8.9-3.6h0.1v157.9h-0.1l-8.9-3.6l-5.2-16.1c-0.1-0.5-0.5-0.9-1-1.1v-0.1h-0.1c0,0,0,0-0.1,0
		c-0.2-0.1-0.5-0.1-0.7-0.1h-0.2l-19.8,6.3l0,0l-21.9-9.1h-0.1h-0.7l-22,9.1h-0.1l-19.5-6.3c-0.3-0.1-0.6-0.2-1-0.1
		c-0.6,0.1-1.1,0.5-1.4,1l-5.3,16.4l-8.9,3.6h-0.1v-158h0.1l8.9,3.6L235,72.8z M231.2,60.6l-8-3.3l-3.3-8l8.6,2.7L231.2,60.6z
		 M213.6,43.5L202,39.8l0,0l4.4-13.9L213.6,43.5L213.6,43.5z M218.1,44.9l-10-24.2l5.2-16.4l0,0l13.8,43.4l0,0L218.1,44.9z
		 M220,60.4V220H60.4V60.4H220z M74.1,26.2l4.3,13.7l-11.5,3.6l-0.2,0.1L74,26L74.1,26.2z M53.4,47.9L67.2,4.4l0,0l5.2,16.4L62.4,45
		l0,0L53.4,47.9L53.4,47.9z M49.3,60.6L52,52l8.6-2.7l-3.3,8L49.3,60.6z M49.3,219.9l8,3.3l3.3,8l-8.6-2.7L49.3,219.9z M53.3,232.6
		L53.3,232.6l9,2.9l10,24.3L67.2,276l-0.1,0.2L53.3,232.6z M53.4,331.3l13.8-43.4l5.2,16.4l-10,24.2l0,0l-9,2.9V331.3z M49.3,344.1
		L49.3,344.1l2.7-8.6l0,0l8.6-2.7l-3.3,7.9l0,0L49.3,344.1z M49.3,503.3l8,3.3l3.3,8l-8.6-2.7L49.3,503.3z M78.5,524.1L74.1,538
		l-7.3-17.5L78.5,524.1z M62.3,519l10.1,24.2l-5.2,16.4l-13.9-43.4l0,0L62.3,519z M60.4,503.5V343.9H220v159.6H60.4z M202,524.1
		L202,524.1l11.7-3.8v0.1l-7.2,17.4L202,524.1z M227.1,516.1l-13.8,43.4l0,0l-5.2-16.4l10-24.2l0,0L227.1,516.1L227.1,516.1z
		 M231.1,503.4l-2.7,8.5l-8.5,2.7h-0.1l3.3-8L231.1,503.4L231.1,503.4z M223.6,502.5h-0.1V344.7h0.1l8.9,3.6l4.3,13.4l0.9,2.7
		c0,0.1,0,0.1,0.1,0.2l0,0c0,0.1,0.1,0.1,0.1,0.2s0.1,0.2,0.1,0.2c0.3,0.4,0.9,0.7,1.5,0.7h0.2l0,0l0.4-0.1l19.4-6.2l22,9.1h0.8
		l22-9.1l19.8,6.3h0.2c0.4,0,0.6-0.1,0.9-0.2l0.2,0.1l0.1-0.2c0.2-0.1,0.3-0.3,0.4-0.4s0.2-0.2,0.2-0.3l5.3-16.5l9-3.7v157.9l0,0
		l-9-3.7l-5.3-16.7l-0.3-0.3c-0.1-0.1-0.2-0.2-0.5-0.4v-0.1l0,0c-0.2-0.1-0.5-0.2-0.9-0.2h-0.1h-0.1l-19.7,6.3h-0.1l-22-9.1h-0.7
		h-0.1l-21.9,9.1l0,0l-19.4-6.2c-0.1-0.1-0.3-0.1-0.4-0.1c-0.2,0-0.4,0-0.6,0c-0.6,0.1-1.1,0.5-1.4,1l-5.3,16.5L223.6,502.5z
		 M327,497.1L327,497.1l-17.4-7.2l-0.1-0.1l13.9-4.4L327,497.1z M254.4,489.9L254.4,489.9l-17.5,7.2l0,0l3.7-11.7L254.4,489.9z
		 M232.6,510.6l2.9-9l0,0l24.2-10l0,0l6.2,2l9.9,3.2l0.2,0.1L232.6,510.6z M281.9,494.9L281.9,494.9l-17.2-5.5l17.1-7.1h0.1
		l17.1,7.1L281.9,494.9z M287.8,496.8h0.2l16.2-5.2l24.3,10.1l1,3.2l1.8,5.7L287.8,496.8z M332.7,503.3h0.1l7.8,3.3l3.3,7.9l0,0
		l-8.6-2.7L332.7,503.3z M361.9,524.1l-4.4,13.9l-7.3-17.5L361.9,524.1z M345.8,519l10,24.2l-5.2,16.4l-13.8-43.4L345.8,519z
		 M343.9,503.5V343.9h159.6v159.6H343.9z M489.9,537.9l-4.4-13.8l11.6-3.7h0.1L489.9,537.9L489.9,537.9z M510.6,516.1l-13.8,43.4
		l0,0l-5.2-16.4l10.1-24.3L510.6,516.1L510.6,516.1z M514.6,503.3l-2.7,8.6l-8.6,2.7l3.3-8L514.6,503.3z M514.6,344L514.6,344
		l-8-3.3l-3.3-7.8v-0.1l8.6,2.7L514.6,344z M510.6,331.3L510.6,331.3l-9-2.9l-10-24.2l0,0l2-6.2l3.2-10l0.1-0.2L510.6,331.3z
		 M510.5,232.6L496.7,276l0,0l-5.2-16.4l10.1-24.3l9-2.9L510.5,232.6z M514.6,219.9L514.6,219.9l-2.7,8.6l-8.6,2.7l0,0l3.3-7.9
		L514.6,219.9z M506.6,57.3l-3.3-8l8.6,2.7l2.7,8.6L506.6,57.3z M537.2,74.3l-13.1,4.2l-3.8-11.7h0.1l17.4,7.2L537.2,74.3z
		 M516.1,53.4l43.4,13.8l-16.4,5.2l-24.2-10l0,0l-2.9-9H516.1z"/>
</g>
</svg>
