<?xml version="1.0" encoding="utf-8"?>
<!-- Generator: Adobe Illustrator 21.1.0, SVG Export Plug-In . SVG Version: 6.00 Build 0)  -->
<svg version="1.1" id="Layer_1" xmlns="http://www.w3.org/2000/svg" xmlns:xlink="http://www.w3.org/1999/xlink" x="0px" y="0px"
	 viewBox="0 0 457.7 792.7" style="enable-background:new 0 0 457.7 792.7;" xml:space="preserve">
<style type="text/css">
	.st0{fill:#202020;}
</style>
<title>Artboard 1</title>
<path class="st0" d="M323.5,396.4c-0.2-0.4-0.6-0.8-1-1l-45.4-26.9l-0.6-52.8c0-0.2,0-0.4-0.1-0.6l0,0c-0.2-0.9-1-1.6-2-1.7l0,0
	c-0.3,0-0.5,0-0.8,0.1c-0.2,0.1-0.4,0.1-0.6,0.3L228.9,340l-44.2-26.2c-0.2-0.1-0.4-0.2-0.6-0.3c-0.3-0.1-0.5-0.1-0.8-0.1l0,0
	c-0.9,0.1-1.7,0.7-2,1.6l0,0c-0.1,0.2-0.1,0.5-0.1,0.7l-0.6,52.8l-45.4,26.9c-1,0.6-1.5,1.8-1,2.9l0,0c0.1,0.3,0.3,0.5,0.5,0.7l0,0
	c0.1,0.1,0.3,0.3,0.5,0.4l44.8,25.2l-0.6,51.4c0,0.8,0.4,1.6,1.1,2l0,0c0.3,0.2,0.6,0.3,0.9,0.3c0.3,0,0.5,0,0.8-0.1l0,0
	c0.2-0.1,0.4-0.1,0.6-0.2l46-25.9l46,25.9c0.2,0.1,0.4,0.2,0.6,0.2l0,0c0.2,0,0.4,0.1,0.6,0.1h0.2c1.2-0.1,2.1-1.1,2.1-2.3
	l-0.5-51.4l44.8-25.2c0.2-0.1,0.3-0.2,0.5-0.3l0,0c0.2-0.2,0.4-0.4,0.5-0.7l0,0C323.8,397.7,323.8,397,323.5,396.4L323.5,396.4z
	 M180.1,419.3l-39.1-22l39.6-23.5L180.1,419.3z M272.1,319.7l0.5,46l-39.2-23.2L272.1,319.7z M185.7,319.7l38.7,22.9l-39.2,23.2
	L185.7,319.7z M184.1,472l0.5-44.9l39.7,22.3L184.1,472z M184.6,421.9l0.5-50.8l43.7-25.9l43.7,25.9l0.5,50.8l-44.2,24.9
	L184.6,421.9z M233.5,449.4l39.6-22.3l0.5,44.9L233.5,449.4z M277.7,419.3l-0.5-45.5l39.6,23.5L277.7,419.3z"/>
<path class="st0" d="M232.8,658.3l224.9-389.5v-9.2L307.8,0h-5.3l151.2,261.9H4L155.2,0h-5.3L0,259.6v9.1l224.9,389.5H0v4.6h224.9
	l-75,129.8h5.3l73.6-127.5l73.7,127.6h5.3l-75-129.8h224.9v-4.6H232.8z M56.9,358.2L4,266.5h449.8L228.9,656L56.9,358.2z"/>
<path class="st0" d="M94.1,792.1L94.1,792.1c-0.1-0.1-0.3-0.3-0.5-0.3l-45.4-26.9l-0.6-52.8c0-0.2,0-0.4-0.1-0.6l0,0
	c-0.2-0.6-0.5-1.1-1.1-1.4l0,0c-0.3-0.2-0.6-0.3-1-0.3l0,0c-0.2,0-0.5,0-0.7,0l0,0c-0.2,0.1-0.5,0.2-0.7,0.3L0,736.3v5.3l43.7,25.9
	l0.3,25.2h4.6l-0.2-22.5l38,22.5h8.2C94.4,792.5,94.3,792.3,94.1,792.1L94.1,792.1z M4.5,739l38.7-22.9l0.5,46L4.5,739z"/>
<path class="st0" d="M413.5,710.1c-0.2-0.1-0.4-0.2-0.6-0.3l0,0c-0.2-0.1-0.5-0.1-0.7-0.1c-1.2,0.1-2.1,1.1-2.1,2.3l-0.6,52.8
	l-45.4,26.9c-0.4,0.2-0.7,0.6-0.9,1h8.2l38-22.5l-0.2,22.5h4.6l0.3-25.2l43.7-25.9l0,0v-5.3l0,0L413.5,710.1z M414.1,762.1l0.5-46
	l38.7,22.9L414.1,762.1z"/>
<path class="st0" d="M363.1,0L363.1,0c-0.3,0.6-0.2,1.3,0,1.9c0.1,0.2,0.2,0.4,0.4,0.6l0,0c0.2,0.2,0.4,0.3,0.6,0.5l44.8,25.2
	l-0.5,51.4c0,1.3,1,2.3,2.3,2.3c0.4,0,0.8-0.1,1.2-0.3l46-25.9l0,0v-5.2l0,0l-44.3-24.9L413.7,0h-4.6l-0.2,22.9l-39.1-22l1.5-0.9
	L363.1,0L363.1,0L363.1,0z M413.4,30.7L453,53l-40.1,22.6L413.4,30.7z"/>
<path class="st0" d="M46.5,81.8L46.5,81.8c0.2,0,0.4,0.1,0.6,0.1h0.3c1.2-0.1,2-1.2,2-2.3l-0.5-51.4L93.6,2.9
	c0.2-0.1,0.4-0.3,0.6-0.4l0,0C94.8,1.8,95,0.8,94.6,0h-8.1L88,0.9l-39.2,22L48.6,0H44l0.3,25.5L0,50.4v5.2l46,25.9
	C46.2,81.6,46.4,81.7,46.5,81.8z M4.7,53l39.7-22.3l0.5,44.9L4.7,53z"/>
</svg>
