<?xml version="1.0" encoding="utf-8"?>
<!-- Generator: Adobe Illustrator 21.1.0, SVG Export Plug-In . SVG Version: 6.00 Build 0)  -->
<svg version="1.1" id="Layer_1" xmlns="http://www.w3.org/2000/svg" xmlns:xlink="http://www.w3.org/1999/xlink" x="0px" y="0px"
	 viewBox="0 0 453.1 792.7" style="enable-background:new 0 0 453.1 792.7;" xml:space="preserve">
<title>Artboard 1</title>
<g>
	<polygon points="453.1,792.7 453.1,791.6 451.1,792.7 	"/>
	<path d="M91.4,791.7L46,764.8l-0.6-52.7c0-0.2,0-0.5-0.1-0.7c-0.3-0.9-1.1-1.5-2-1.6c-0.2,0-0.5,0-0.7,0.1s-0.4,0.1-0.6,0.3
		L0,734.9v8.1l41.4,24.5l0.3,25.2h4.6l-0.2-22.5l38,22.5h8.2C92.1,792.3,91.8,791.9,91.4,791.7z M2.2,739l38.7-22.9l0.5,46L2.2,739z
		"/>
	<polygon points="0,792.7 2.3,792.7 0,791.4 	"/>
	<path d="M337.3,726.2c1-0.4,1.6-1.5,1.5-2.5l0.4-8.5l100.9-52.3h13v-4.6h-4.3l4.3-2.2v-7.7l-108.4-56l5.6-122l101.1,58.4
		c0.5,0.3,1.1,0.3,1.7,0.2v-4.5l-100.6-58l100.6-64.3v-8.3l-51-32.6l51-88.3v-17.2l-50.9-88.1l43.9-22.8l7,4.5v-5.5l-2.3-1.5
		l2.3-1.2V136l-6.8,3.5l-95.6-61.2l-6.6-11.4l62.4-36L406,79.5c0,0.5,0.1,1,0.4,1.4c0.5,0.7,1.5,1.1,2.4,0.9
		c0.2-0.1,0.4-0.1,0.6-0.3l43.7-24.6V49l-39.7-22.3l39.7-22.9V0h-2.4l-39.5,22.8L411.4,0h-4.6l-0.2,22.9l-39.1-22L369,0h-8.1
		c-0.4,0.9-0.2,1.9,0.5,2.5c0.1,0.1,0.3,0.3,0.5,0.4l42.4,23.9l-62.4,36l-6.6-11.4L332.9,0h-4.6l2,42.9l-6.7-11.7L305.5,0h-5.3
		l30.5,52.8l0.6,13L230.8,1.5l2.3-1.5h-13.2l2.3,1.5L121.8,65.8l0.6-13L152.9,0h-5.3l-24.8,42.9l2-42.9h-4.6l-2.3,51.5l-6.6,11.4
		l-62.4-36l42.4-24c0.2-0.1,0.3-0.2,0.5-0.3c0.7-0.7,0.9-1.7,0.5-2.6h-8.1l1.5,0.9l-39.2,22L46.3,0h-4.6l0.2,22.8L2.4,0H0v3.9
		l39.6,22.9L0,49.1v7.8l43.7,24.6c0.4,0.2,0.9,0.4,1.4,0.3c0.4,0,0.7-0.1,1-0.3c0.2-0.1,0.5-0.3,0.6-0.6c0.3-0.4,0.5-0.9,0.4-1.4
		l-0.5-48.7l62.4,36l-6.6,11.4L6.7,139.4L0,136v5.1l2.3,1.2L0,143.8v5.4l7-4.5l43.9,22.8L0,255.6v17.2l51,88.3L0,393.7v8.3
		l100.6,64.3L0,524.5v4.5c0.6,0.1,1.2,0.1,1.7-0.2l101.1-58.4l5.6,122L0,648.5v7.6l4.3,2.2H0v4.5h13.1L114,715.1l0.4,8.5
		c-0.1,1.1,0.5,2.1,1.5,2.5l7.2,4.6l-2.8,61.9h4.6l2.7-59.1l39.6,25.4l-19.5,33.7h5.3l18.1-31.3l48.9,31.3h13.4l48.9-31.3l18,31.3
		h5.3L286,759l39.6-25.3l2.7,59h4.6l-2.8-61.9L337.3,726.2z M411.1,30.7L450.7,53l-40.1,22.6L411.1,30.7z M2.4,53l39.7-22.3
		l0.5,44.9L2.4,53z M337.1,658.3H230.5l53.3-92.3l56.2,29.1L337.1,658.3z M177.2,476.5c0.2,0.9,1,1.6,2,1.7c0.2,0,0.5,0,0.7,0
		c0.2-0.1,0.4-0.1,0.6-0.2l46-25.9l46,25.9c0.2,0.1,0.4,0.2,0.6,0.3c0.6,0.1,1.2,0,1.7-0.3c0.3-0.2,0.5-0.4,0.6-0.6
		c0.3-0.4,0.4-0.9,0.4-1.4l-0.5-48.7l62.4,36l-6.6,11.4l-95.7,61.2l-7.6-3.9c-0.9-0.7-2.1-0.7-2.9,0l-7.6,3.9l-95.7-61.2l-6.6-11.4
		l62.4-36l-0.5,48.7C177.2,476.1,177.2,476.3,177.2,476.5z M138.6,397.2l39.6-23.5l-0.5,45.5L138.6,397.2z M224.3,346.6V395
		l-41.9,24.2l0.5-48.1L224.3,346.6z M182.9,365.7l0.5-46l38.7,22.9L182.9,365.7z M112.8,261.9l2.8-60.9l106,54.9l-11.6,6H112.8z
		 M201.2,266.5l-90.7,47l2.1-47H201.2z M224.3,259.7v2.2H220L224.3,259.7z M226.6,399l41.9,24.2l-41.9,23.6l-41.9-23.6L226.6,399z
		 M270.3,371.1l0.5,48.1l-42-24.2v-48.4L270.3,371.1z M231.1,342.6l38.6-22.9l0.5,46L231.1,342.6z M270.9,427.1l0.5,44.9l-40.1-22.6
		L270.9,427.1z M221.9,449.5L181.8,472l0.5-44.9L221.9,449.5z M274.9,373.8l39.6,23.5l-39.1,22L274.9,373.8z M326.3,483.2L282,559.9
		l-41.8-21.6L326.3,483.2z M231.1,538.7l-4.6,2.9l-4.6-2.9l4.6-2.4L231.1,538.7z M212.8,538.3L171,559.9l-5.8-10.1l-38.4-66.6
		L212.8,538.3z M217.3,541.1l7.8,5c0.9,0.5,2.1,0.5,3,0l7.8-5l43.9,22.8L226.6,656l-52.9-91.7l-0.2-0.4L217.3,541.1z M339.3,709.8
		l2.1-47H430L339.3,709.8z M450.4,652.3l-11.6,6h-97.1l2.8-60.9L450.4,652.3z M340.2,590l-54.1-28l48.6-84.2l11-7L340.2,590z
		 M339.7,469.2l2.1-3.7l1.9,1.1L339.7,469.2z M346.1,462.6l-1.9-1.1l2.1-3.7L346.1,462.6z M346.7,447.9l-6.6,11.4l-62.4-36
		l42.4-23.9c0.2-0.1,0.4-0.2,0.5-0.4c0.7-0.7,0.8-1.7,0.5-2.5c-0.2-0.4-0.6-0.8-1-1l-45.4-26.9l-0.6-52.8c0-0.2,0-0.4-0.1-0.5
		c-0.3-1.2-1.5-2-2.8-1.7h-0.1c-0.2,0.1-0.3,0.1-0.5,0.2l-41.9,24.8v-72.2h13.1l100.9,52.3l0.4,8.5c-0.1,1.1,0.5,2.1,1.5,2.5
		l7.2,4.6L346.7,447.9z M243.1,261.9l-11.6-6l106-54.9l2.8,60.9H243.1z M340.5,266.5l2.1,47l-90.7-47H340.5z M233.2,261.9h-4.3v-2.2
		L233.2,261.9z M352.2,329.1l-4.3-2.8l-0.2-5.1l4.8,2.5L352.2,329.1z M356.4,337.2l39.6,25.4l-44.3,76.7L356.4,337.2z M451.2,397.9
		l-100.5,64.3l0.6-13l48.6-84.2L451.2,397.9z M398.6,358.2l-0.2,0.4l-41.7-26.7l0.4-9.2c-0.1-1.1-0.6-2-1.5-2.6l-8.2-4.2l-2.2-49.4
		h106.3L398.6,358.2z M451.5,261.9H344.9l-2.9-63.2l56.2-29.1L451.5,261.9z M441.7,141.9l-41.8,21.6l-44.2-76.7L441.7,141.9z
		 M347.3,81.4l48.6,84.2l-54.1,28l-5.4-119.2L347.3,81.4z M340.2,69.1l2.1,3.7l-4.1-2.6L340.2,69.1z M337.9,65.1l-1.9,1.1l-0.2-4.8
		L337.9,65.1z M121.4,74l101.1,58.4c1.1,0.6,2.5,0.2,3.1-0.9c0.6-1.1,0.2-2.5-0.9-3.1L123.7,70L226.6,4.2L329.4,70l-101.1,58.4
		c-1.1,0.6-1.5,2-0.9,3.1s2,1.5,3.1,0.9L331.7,74l5.6,122l-108.4,56.1V135.4c0-1.3-1-2.3-2.3-2.3s-2.3,1-2.3,2.3v116.7L115.9,196
		L121.4,74z M117.4,61.4l-0.2,4.8l-1.9-1.1L117.4,61.4z M113,69.1l1.9,1.1l-4.1,2.6L113,69.1z M105.8,81.5l11-7l-5.4,119.2l-54.1-28
		L105.8,81.5z M11.4,141.9l86-55.1l-44.2,76.7L11.4,141.9z M54.6,170.2l0.3-0.6l56.2,29.1l-2.9,63.2H1.7L54.6,170.2z M1.7,266.5H108
		l-2.2,49.4l-8.2,4.2c-0.9,0.6-1.4,1.6-1.5,2.6l0.4,9.2l-41.7,26.7l-0.2-0.4L1.7,266.5z M100.7,323.7l4.8-2.5l-0.2,5.1l-4.3,2.8
		L100.7,323.7z M101.4,439.3l-44.2-76.7l39.6-25.4L101.4,439.3z M1.9,397.9L53.3,365l48.6,84.2l0.6,13L1.9,397.9z M101.2,334.4
		l7.2-4.6c1-0.4,1.6-1.5,1.5-2.5l0.4-8.5l100.9-52.3h13.1v72.1l-41.9-24.8c-0.2-0.1-0.3-0.2-0.5-0.2c-0.3-0.1-0.6-0.1-0.9-0.1
		c-1,0.1-1.7,0.8-2,1.7c-0.1,0.2-0.1,0.4-0.1,0.6l-0.6,52.8l-45.4,26.9c-0.2,0.1-0.4,0.2-0.5,0.4c-0.9,0.9-0.9,2.3,0,3.2
		c0.2,0.2,0.3,0.3,0.5,0.4l42.4,23.9l-62.4,36l-6.6-11.4L101.2,334.4z M113.5,469.2l-4.1-2.6l1.9-1.1L113.5,469.2z M106.9,457.8
		l2.2,3.7l-1.9,1.1L106.9,457.8z M107.5,470.8l11,7l48.6,84.2L113,590L107.5,470.8z M2.7,652.3l106-54.9l2.8,60.9H14.2L2.7,652.3z
		 M23.1,662.9h88.6l2.1,47L23.1,662.9z M113.1,595.1l56.2-29.1l53.3,92.3H116L113.1,595.1z M123.2,725.5l-4.3-2.8l-0.2-5.2l4.8,2.5
		L123.2,725.5z M169.4,755l-41.7-26.7l0.4-9.2c-0.1-1.1-0.6-2-1.5-2.6l-8.2-4.2l-2.2-49.4h106.4L169.4,755z M226.6,791.6l-53.3-34.1
		l53.3-92.3l53.3,92.3L226.6,791.6z M325.4,717.7c-0.3,0.4-0.5,0.9-0.5,1.5l0.4,9.2L283.7,755l-53.2-92.1h106.4l-2.2,49.4l-8.2,4.2
		C326,716.8,325.6,717.2,325.4,717.7z M329.6,720.1l4.8-2.5l-0.2,5.2l-4.3,2.8L329.6,720.1z"/>
	<path d="M453.1,743.2V735l-41.8-24.7c-0.2-0.1-0.4-0.2-0.6-0.3s-0.5-0.1-0.8-0.1c-0.4,0-0.7,0.1-1,0.3s-0.5,0.4-0.7,0.6
		c-0.2,0.2-0.3,0.5-0.4,0.8c0,0.2-0.1,0.4-0.1,0.5l-0.6,52.8l-45.4,26.9c-0.4,0.2-0.7,0.6-0.9,1h8.2l38-22.5l-0.2,22.5h4.6l0.3-25.2
		L453.1,743.2z M412.3,716.1L451,739l-39.2,23.1L412.3,716.1z"/>
</g>
</svg>
