<?xml version="1.0" encoding="utf-8"?>
<!-- Generator: Adobe Illustrator 21.1.0, SVG Export Plug-In . SVG Version: 6.00 Build 0)  -->
<svg version="1.1" id="Layer_1" xmlns="http://www.w3.org/2000/svg" xmlns:xlink="http://www.w3.org/1999/xlink" x="0px" y="0px"
	 viewBox="0 0 453.1 792.6" style="enable-background:new 0 0 453.1 792.6;" xml:space="preserve">
<style type="text/css">
	.st0{fill:#CECECE;}
</style>
<title>Artboard 1</title>
<g>
	<path class="st0" d="M167.3,758.9l-19.5,33.7h5.3l18-31.2l8.9,31.2h4.8L177,765l43.2,27.6h13.4l43.2-27.6l-7.9,27.6h4.8l8.9-31.2
		l18,31.2h5.3L286,759l39.6-25.3l2.7,58.9h4.6l-2.8-61.7l6.4-4.1l68.4,39.5l-43.1,25.5l-0.1,0.1c-0.1,0.1-0.2,0.2-0.3,0.3l-0.1,0.1
		l-0.3,0.3h8.7l37.5-22.2l-0.2,22.2h4.6l0.3-22.3l38.7,22.3h2.5v-4L414,766.1l39.1-23.1v-8.2L412.7,711l11.3-39.9l16-8.3h13.1v-4.5
		h-4.2l4.2-2.1v-7.7l-19.7-10.1l19.7-69.1v-16.8l-23.8,83.7l-43.9-22.7l65.8-67.8l1.9,6.8V532l-1.2-1.3l-0.6-2.1l0.4,0.2
		c0.4,0.2,0.9,0.3,1.4,0.3v-10.3l-5.1-1.3l-27-94.7l32.1-20.6v-8.5L403.7,362l-0.7-2.4l50.1-86.7v-17.5l-50.8-87.9l43.9-22.8
		l6.9,4.4v-5.5l-2.2-1.4l2.2-1.1v-4.9l-6.6,3.4l-75.3-48.2l37.6-9.5h0.1c0.1,0,0.2-0.1,0.3-0.1l0.2-0.1l43.7-24.5v-8l-39.6-22.3
		L453.1,4V0h-2.4l-39.5,22.8L411.4,0h-4.6l-0.2,22.9l-39.1-22L369,0h-8.3l-26.4,27.2L332.9,0h-4.6l1.5,31.8l-3.7,3.8L305.5,0h-5.3
		l22.5,39l-12.8,13.2l-43.6-27.9l7-24.3h-4.8l-6.2,21.7L230.8,1.5l2.3-1.5h-13.2l2.3,1.5l-31.5,20.2L184.6,0h-4.8l6.9,24.3
		l-43.6,27.9L130.3,39l22.5-39h-5.3L127,35.6l-3.7-3.8L124.8,0h-4.6L119,27.2L92.5,0h-8.3l1.5,0.9l-39.2,22L46.3,0h-4.6l0.2,22.8
		L2.4,0H0v3.9l39.6,22.9L0,49.1v7.8l43.7,24.6l0.2,0.1c0.1,0.1,0.2,0.1,0.4,0.1h0.1L82,91.2L6.7,139.4L0,135.9v5.2l2.3,1.2L0,143.8
		v5.4l7-4.5l43.9,22.8L0,255.6v17.1l50.2,86.9l-0.7,2.4L0,393.7v8.3l32.2,20.6L5.3,517.4L0,518.7v10.2c0.5,0.1,1.1,0.1,1.6-0.2
		l0.4-0.2l-0.6,2.1L0,532.1v36.7l19.7,69.5L0,648.5v7.5l4.3,2.2H0v4.6h13.1l16,8.3L40.4,711L0,734.9v8.1l39.2,23.2L0,788.7v3.9h2.4
		l39-22.5l0.3,22.5h4.6l-0.2-22.4l37.8,22.4h8.5l-0.4-0.5l-0.1-0.1c-0.1-0.1-0.2-0.2-0.3-0.3l-0.1-0.1l-43.1-25.5l68.4-39.5l6.4,4.1
		l-2.8,61.9h4.6l2.7-59.1L167.3,758.9z M411.1,30.7L450.7,53l-40.1,22.6L411.1,30.7z M2.4,53L42,30.7l0.5,44.9L2.4,53z M278.4,758.5
		l-51.8,33.1l-51.8-33.1l-0.7-2.5l52.5-90.9l52.5,90.9L278.4,758.5z M110.9,547.8l-2.4-51.7l17.8-4.5l40.6,70.2L110.9,547.8z
		 M161,565.1L112.9,590l-1.7-37.4L161,565.1z M111.1,651.5l-35.8-36.9l33.3-17.2L111.1,651.5z M97.9,95.3l17.8,4.5l-2.4,51.7
		l-56,14.1L97.9,95.3z M93.4,89.4l4.1-2.6L95.6,90L93.4,89.4z M116.8,74.4L115.9,95l-15.6-3.9l5.6-9.7L116.8,74.4z M110.8,72.8
		l2.2-3.7l1.9,1.1L110.8,72.8z M224.8,128.4l-0.4-0.2l2.1-0.5l2.1,0.5l-0.4,0.2c-1.1,0.6-1.5,2-0.9,3.1s2,1.5,3.1,0.9l0.4-0.2
		l-0.6,2.1l-1.5,1.6v-0.4c0-1.3-1-2.3-2.3-2.3s-2.3,1-2.3,2.3v0.4l-1.6-1.6l-0.6-2.1l0.4,0.2c1.1,0.6,2.5,0.2,3.1-0.9
		C226.2,130.4,225.9,129,224.8,128.4z M347.3,81.4l5.6,9.7L337.3,95l-0.9-20.6L347.3,81.4z M338.2,70.2l1.9-1.1l2.1,3.7L338.2,70.2z
		 M395.8,165.5l-56-14.1l-2.4-51.7l17.8-4.5L395.8,165.5z M355.7,86.8l4.1,2.6l-2.2,0.6L355.7,86.8z M342.2,547.8l-56,14.1
		l40.5-70.2l17.8,4.5L342.2,547.8z M377.8,614.6L342,651.5l2.5-54.1L377.8,614.6z M341.9,552.6l-1.7,37.4l-48.1-24.9L341.9,552.6z
		 M121.8,474.6l-6.6-11.4l62.4-36l-0.5,47l-40.2,10.1L121.8,474.6z M130.8,485.8l-2.2,0.6l-1.8-3.2L130.8,485.8z M179.9,478.2
		c0.2,0,0.4-0.1,0.5-0.2l0.1-0.1l43.7-24.6v79l-6.7,3.5l-75.3-48.2L179.9,478.2z M138.6,397.2l39.6-23.5l-0.5,45.5L138.6,397.2z
		 M153.1,220.4l45.9,23.8l-5,17.6h-81.1L153.1,220.4z M113.1,255.1l2.5-54.1l33.3,17.2L113.1,255.1z M221.5,255.9l-11.6,6h-11.1
		l4.4-15.5L221.5,255.9z M204.5,241.9l19.8-69.4l-0.1,79.7L204.5,241.9z M224.2,259.7v2.2h-4.3L224.2,259.7z M201.1,266.5l-4.3,2.2
		l0.6-2.2H201.1z M195.1,274.8l16-8.3h13.1v72.1l-40.4-23.9L195.1,274.8z M222,342.6l-39.2,23.2l0.5-46L222,342.6z M224.2,346.6
		v45.8L185,369.8L224.2,346.6z M221.9,396.3l-39.6,22.9l0.5-45.5L221.9,396.3z M224.2,400.3v45.2l-39.6-22.3L224.2,400.3z
		 M221.8,449.4l-40,22.6l0.5-44.9L221.8,449.4z M226.5,536.3l4.6,2.4l-4.6,2.9l-4.6-2.9L226.5,536.3z M340.1,261.9H259l-5-17.6
		l45.9-23.8L340.1,261.9z M304.1,218.2l33.4-17.2l2.5,54.1L304.1,218.2z M228.9,400.3l39.6,22.9l-39.6,22.3V400.3z M228.8,392.3
		v-45.8l39.2,23.2L228.8,392.3z M270.9,427.1l0.5,44.9l-40.1-22.6L270.9,427.1z M231.2,396.3l39.1-22.6l0.5,45.5L231.2,396.3z
		 M231,342.5l38.7-22.8l0.5,46L231,342.5z M228.8,338.6v-72.1h13.1l16,8.3l11.3,39.9L228.8,338.6z M251.8,266.5h3.7l0.6,2.2
		L251.8,266.5z M254.2,261.9h-11.1l-11.6-6l18.3-9.5L254.2,261.9z M228.7,252.1v-79.7l19.9,69.4L228.7,252.1z M233,261.9h-4.3v-2.2
		L233,261.9z M228.8,532.4v-79l43.7,24.5c0.3,0.1,0.4,0.2,0.6,0.3l37.7,9.5l-75.3,48.2L228.8,532.4z M316.1,484.3l-40.2-10.1
		l-0.5-47l62.4,36l-6.6,11.4L316.1,484.3z M326.3,483.2l-1.8,3.2l-2.2-0.6L326.3,483.2z M274.9,373.8l39.6,23.5l-39.1,22
		L274.9,373.8z M317,489.1l5.2,1.3l-40.1,69.4l-41.8-21.6L317,489.1z M329.2,487.5l5.6-9.7l11-7l-1.1,20.7L329.2,487.5z
		 M339.7,469.2l2.1-3.7l1.9,1.1L339.7,469.2z M344.1,461.5l2.1-3.7l-0.2,4.8L344.1,461.5z M340.1,459.2l-62.4-36l41-23.1l28.9,29.8
		l-0.8,18L340.1,459.2z M349,497.2l84.4,21.2l4.9,5.1l-91.6,23L349,497.2z M349.2,492.6l1-22.2l69,39.8L349.2,492.6z M352.5,466.4
		l18.7-12l50.3,51.8L352.5,466.4z M350.6,462.2l0.6-13l5.6-9.7l11.2,11.6L350.6,462.2z M351.6,439.2l0.2-4.8l1.6,1.7L351.6,439.2z
		 M355.9,432l-3.7-3.8l4.1-90.9l39.6,25.4L355.9,432z M352.1,329.1l-4.3-2.8l-0.2-5.1l4.8,2.5L352.1,329.1z M351.9,334.4l-4.1,89.3
		l-27.1-27.9c-0.1-0.1-0.3-0.2-0.4-0.3l-0.1-0.1l-43.1-25.5l68.4-39.5L351.9,334.4z M274.8,365.9l-0.5-50.1v-0.1
		c0-0.2,0-0.3-0.1-0.5V315l-10.6-37.4l79.4,41.1l0.4,7.6L274.8,365.9z M261.8,271.6l-1.5-5.1h80.1l2.1,47L261.8,271.6z M340,156.2
		l49.8,12.5l-48.1,24.9L340,156.2z M335.9,66.3l-0.2-4.9l2.1,3.7L335.9,66.3z M337.3,196l-36.4,18.9l-68.6-70.7l2.1-7.5l5.4-5.6
		l95.5,24L337.3,196z M296.6,217l-43.9,22.8L228.9,156l1.9-6.8L296.6,217z M222.2,149.2l1.9,6.8l-23.8,83.7L156.5,217L222.2,149.2z
		 M152.2,214.8L115.9,196l1.8-41l95.5-24l5.4,5.6l2.1,7.5L152.2,214.8z M117.2,66.3l-1.9-1.1l2.2-3.7L117.2,66.3z M113.1,156.2
		l-1.7,37.4l-48.1-24.9L113.1,156.2z M112.6,266.5h80.1l-1.4,5.1l-80.8,41.9L112.6,266.5z M189.6,277.6L179,315
		c-0.1,0.2-0.1,0.3-0.1,0.5c0,0.1,0,0.1,0,0.2l-0.5,50.1L110,326.3l0.3-7.6L189.6,277.6z M176.1,369.8L133,395.3l-0.1,0.1
		c-0.1,0.1-0.3,0.2-0.4,0.3l-0.1,0.1l-27.1,27.9l-4.1-89.3l6.4-4.1L176.1,369.8z M103.9,492.6l-70,17.6l69-39.8L103.9,492.6z
		 M101.4,439.3l-1.8-3.2l1.6-1.7L101.4,439.3z M105.3,326.3l-4.3,2.8l-0.2-5.4l4.8-2.5L105.3,326.3z M100.9,428.1l-3.7,3.9
		l-40.1-69.4l39.6-25.4L100.9,428.1z M101.9,449.1l0.6,13L85.1,451l11.2-11.6L101.9,449.1z M100.6,466.4l-69,39.8l50.3-51.8
		L100.6,466.4z M104.1,497.2l2.2,49.4l-91.7-23l5-5.1L104.1,497.2z M105.6,429.9l28.9-29.8l40.9,23l-62.4,36l-6.6-11.4L105.6,429.9z
		 M113.5,469.2l-4.1-2.6l1.9-1.1L113.5,469.2z M109.1,461.5l-1.9,1.1l-0.2-4.8L109.1,461.5z M118.5,477.8l5.6,9.7l-15.6,3.9
		l-0.9-20.6L118.5,477.8z M131.1,490.4l5.2-1.3l76.7,49.1l-41.8,21.6L131.1,490.4z M217.3,541l7.8,5c0.9,0.5,2.1,0.5,3,0l7.8-5
		l43.9,22.8L226.6,656l-53.2-92.1L217.3,541z M334.2,722.7l-4.3,2.8l-0.2-5.4l4.8-2.5L334.2,722.7z M334.7,712.3l-8.2,4.2
		c-0.9,0.6-1.4,1.6-1.5,2.6l0.4,9.2L283.7,755l-0.2-0.4l-52.9-91.7H337L334.7,712.3z M335.5,658.3h-105l52.5-90.9l2.5-0.6l54.6,28.3
		l-2.8,61.4L335.5,658.3z M451,739l-39.2,23.2l0.5-46.1L451,739z M407.9,711.4L407.9,711.4c0,0.2,0,0.3,0,0.4s0,0.2,0,0.2l-0.5,50.1
		L339,722.6l0.4-7.6l79.3-41.1L407.9,711.4z M420.1,668l-80.8,41.9l2.2-47h80.1L420.1,668z M425.8,665.1l0.6-2.2h3.7L425.8,665.1z
		 M432.1,642.8l18.3,9.5l-11.6,6h-11.1L432.1,642.8z M427.9,640.7l-5,17.6h-81.1l40.2-41.4L427.9,640.7z M449.7,540.5l-68.6,70.7
		l-36.4-18.8l1.9-40.9l95.5-24l5.4,5.6L449.7,540.5z M442.7,516.1l-6.9-1.7l-60.6-62.5l41.6-26.6L442.7,516.1z M451.2,397.9
		l-31.6,20.2l-14-49.4L451.2,397.9z M415.5,420.7l-43.6,27.9l-12.8-13.2l40.6-70.2L415.5,420.7z M398.5,358.2l-0.2,0.4l-41.7-26.7
		l0.4-9.2c-0.1-1.1-0.6-2-1.5-2.6l-8.2-4.2l-2.2-49.4h106.4L398.5,358.2z M451.5,261.9h-105l-1.8-1.8l-2.8-61.4l54.6-28.3l2.5,0.6
		L451.5,261.9z M441.7,141.9l-41.8,21.6l-40.1-69.4l5.2-1.3L441.7,141.9z M406.1,77.8l-40.2,10.1l-15.2-9.7l-6.6-11.4l62.4-36
		L406.1,77.8z M363.3,3.8l40.9,23l-62.4,36l-6.6-11.4l-0.8-18L363.3,3.8z M335.2,150.2l-91.6-23l4.9-5.1l84.4-21.2L335.2,150.2z
		 M332.7,96.2l-70,17.6l69-39.8L332.7,96.2z M330.1,38l0.2,4.8l-1.8-3.2L330.1,38z M325.1,43.1l5.6,9.7l0.6,13l-17.4-11.1
		L325.1,43.1z M310.7,58l18.7,12l-69,39.8L310.7,58z M265.1,28.9l41.6,26.6L246.1,118l-6.9,1.7L265.1,28.9z M226.6,4.2l34.5,22.1
		l-27,94.7l-7.6,1.9l-7.6-1.9L192,26.3L226.6,4.2z M188,28.9l25.8,90.8l-6.9-1.7l-60.6-62.5L188,28.9z M192.7,109.9l-69-39.9
		l18.7-12L192.7,109.9z M123,38l1.7,1.7l-1.8,3.2L123,38z M122.4,52.8l5.6-9.7l11.2,11.6l-17.4,11.1L122.4,52.8z M121.4,73.9
		l69,39.8l-70-17.6L121.4,73.9z M120.1,100.8l84.4,21.2l4.9,5.1l-91.6,23L120.1,100.8z M89.8,3.8l28.9,29.7l-0.8,18l-6.6,11.4
		l-62.4-36L89.8,3.8z M47.1,77.8l-0.5-47l62.4,36l-6.6,11.4l-15.1,9.7L47.1,77.8z M11.4,141.9l76.7-49.1l5.2,1.3l-40.1,69.4
		L11.4,141.9z M54.1,171l2.5-0.6l54.6,28.3l-2.8,61.4l-1.8,1.8H1.7L54.1,171z M1.7,266.5H108l-2.2,49.4l-8.2,4.2
		c-0.9,0.6-1.4,1.5-1.5,2.6l0.4,9.2l-41.7,26.7l-0.2-0.4L1.7,266.5z M53.4,365.1L94,435.3l-12.8,13.2l-43.6-27.9L53.4,365.1z
		 M1.9,397.9l45.6-29.2l-14,49.4L1.9,397.9z M36.2,425.3l41.6,26.6l-60.6,62.5l-6.9,1.7L36.2,425.3z M5.6,533l5.4-5.6l95.5,24
		l1.9,40.9L72,611.2L3.5,540.5L5.6,533z M0.1,552.4l1.9-6.8l65.8,67.8l-43.9,22.8L0.1,552.4z M2.7,652.3l18.3-9.5l4.4,15.5H14.2
		L2.7,652.3z M23,662.9h3.7l0.6,2.2L23,662.9z M25.1,640.6L71,616.8l40.2,41.4h-81L25.1,640.6z M31.4,662.9h80.2l2.1,47L32.9,668
		L31.4,662.9z M2.2,738.9L40.9,716l0.5,46L2.2,738.9z M46,762.2l-0.5-50.1c0,0,0-0.1,0-0.2c0-0.1,0-0.3-0.1-0.4v-0.1L34.7,674
		l79.3,41.1l0.3,7.6L46,762.2z M113.1,595.1l54.6-28.3l2.4,0.6l52.5,90.9H117.7l-1.8-1.8L113.1,595.1z M123.3,725.5l-4.3-2.8
		l-0.2-5.2l4.8,2.5L123.3,725.5z M126.6,716.5l-8.2-4.2l-2.2-49.4h106.4l-52.9,91.7l-0.2,0.4l-41.8-26.7l0.4-9.2
		C128,718,127.5,717.1,126.6,716.5z"/>
</g>
</svg>
