<?xml version="1.0" encoding="utf-8"?>
<!-- Generator: Adobe Illustrator 21.1.0, SVG Export Plug-In . SVG Version: 6.00 Build 0)  -->
<svg version="1.1" id="Layer_1" xmlns="http://www.w3.org/2000/svg" xmlns:xlink="http://www.w3.org/1999/xlink" x="0px" y="0px"
	 viewBox="0 0 457.7 792.7" style="enable-background:new 0 0 457.7 792.7;" xml:space="preserve">
<style type="text/css">
	.st0{fill:#939393;}
	.st1{fill:#CECECE;}
</style>
<title>Artboard 1</title>
<path class="st0" d="M265.9,602.3c-1.8-0.2-3.6,0.8-4.5,2.5l-99.3,46.8c-2.3,1.1-3.3,3.8-2.2,6.1c0.8,1.7,2.5,2.7,4.3,2.6l90.2,62.6
	c2.1,1.4,4.9,0.9,6.4-1.2c1.1-1.5,1.1-3.5,0.1-5.1l9.1-109.4C270.2,604.7,268.4,602.5,265.9,602.3z M252.3,710.2L174.1,656l86-40.5
	L252.3,710.2z"/>
<path class="st0" d="M191.9,190.3h0.4c1.7,0,3.3-1,4.1-2.5l99.3-46.8c2.3-1.1,3.3-3.8,2.2-6.1c-0.8-1.7-2.5-2.7-4.3-2.6l-90.2-62.6
	c-2.1-1.5-4.9-1-6.4,1.1c-1.1,1.6-1.1,3.6-0.1,5.2l-9.1,109.4C187.5,187.9,189.4,190.1,191.9,190.3z M205.4,82.4l78.1,54.2l-86,40.6
	L205.4,82.4z"/>
<path class="st1" d="M402.3,792.7h9.2l0.4-22.7l36.7,22.4l-0.4,0.2h9.6v-63.4L320,705.4l66.5-35.5c1.5-0.8,2.4-2.2,2.5-3.9l0,0
	c0.1-1.7-0.8-3.2-2.2-4.1l-16.3-10.1L453,625l4.8,13v-24.2l-1,0.3L368.2,559l15.8-74.3l73.7-39.3V435l-71.2,38l18.5-87.3l9.7-5.2
	l43,38.7v-12.3l-34.4-31l14.8-7.9l19.6,17.7v-12.3l-11-9.9l11-5.9v-10.4l-18.2,9.8L383,306.1l3.5-104.1l71.2-23.2v-24.2L415.3,39.1
	l39.1,23.5c0.8,0.5,1.7,0.7,2.6,0.7l0.8,0.1V0H448l-36.9,20.1L411.5,0h-9.2l-0.5,28.3c0,0.9,0.2,1.8,0.7,2.5l48.5,132l-64-39.9
	c-2.1-1.4-5-0.8-6.3,1.4c-0.5,0.7-0.7,1.6-0.7,2.4l-0.6,19.1L315,87.9L388.2,0h-11.9l-63,75.5l2.6-75.4c0,0,0-0.1,0-0.2h-14.5
	l-9.2,4.9l1-4.9h-9.3l-2.2,10.6l-9.7,5.2L254.4,0h-13.7l22.5,20.3l-14.8,7.9L217.2,0h-13.7l36.4,32.8l-82.3,43.8L173.9,0h-9.4
	l-16.9,79.7L12.7,56.2l39.9-22.1c0.8-0.4,1.4-1.1,1.8-1.9L81.3,0H69.4L55.1,17.1L55.4,0h-9.1l-0.4,22.6L9.1,0.1L9.4,0H0v63.3
	l137.7,23.9l-66.5,35.5c-2.3,1.2-3.1,3.9-2,6.2c0.4,0.8,1,1.4,1.7,1.8l16.3,10.1L4.8,167.6l-4.8-13v24.1l1-0.3l88.5,55.2l-15.7,74.3
	L0,347.2v10.4l71.2-38L52.7,407l-9.7,5.2L0,373.4v12.3l34.4,31l-14.8,7.9L0,406.9v12.3l11,9.9L0,435v10.4l18.3-9.7l56.5,50.8
	l-3.5,104.2L0,613.8V638l42.4,115.5L3.3,730.1c-0.8-0.5-1.7-0.7-2.6-0.7L0,729.3v63.4h9.6l37-20.2l-0.3,20.2h9.2l0.5-28.4
	c0-0.9-0.2-1.8-0.7-2.5l-48.5-132l64,39.9c0.4,0.2,0.7,0.4,1.2,0.5c0.5,0.2,1.1,0.2,1.6,0.2c2.4-0.1,4.3-2.1,4.3-4.5l0.7-19.2
	l64.4,58l-73.4,88h11.9l63.1-75.6l-2.6,75.4c0,0.1,0,0.2,0,0.2h14.3l9.4-5l-1.1,5h9.4l2.3-10.6l9.7-5.2l17.6,15.8h13.7l-22.6-20.4
	l14.8-7.9l31.4,28.3h13.7l-36.5-32.8l82.3-43.9l-16.3,76.7h9.4l16.9-79.7L445,736.4l-39.9,22.1c-0.8,0.4-1.4,1.1-1.9,1.9l-27,32.3
	h11.9l14.3-17.2L402.3,792.7z M452.9,7.7l-1.1,42.7l-36.7-22.1L452.9,7.7z M387.4,175.5L398,172c0.9-0.3,1.8-0.9,2.3-1.7l0,0
	c1.4-1.9,1.1-4.6-0.7-6.2l-11.5-10.4l0.6-19l59.8,37.3l-61.8,20.1L387.4,175.5z M4.4,8l36.4,22.2L3.3,51L4.4,8z M4.8,784.9l1.1-42.7
	l36.7,22.1L4.8,784.9z M70.3,617.1l-10.6,3.4c-0.9,0.3-1.8,0.9-2.3,1.7l0,0c-1.4,1.9-1.1,4.6,0.7,6.2l11.5,10.4l-0.7,19L9.1,620.5
	l61.8-20.1L70.3,617.1z M445.3,617.9l-84.9,27.6l-9.3-5.8l15.1-71.1L445.3,617.9z M159.9,267.7c-0.4-0.9-1-1.7-1.9-2.2l-16.3-10.1
	l82.4-26.8l47.2,128.6l-39.1-23.5c-0.7-0.4-1.5-0.7-2.4-0.6h-0.2L91.2,309l66.6-35.5C159.8,272.4,160.8,269.9,159.9,267.7
	L159.9,267.7z M137.4,172.1l79.1,49.3L131.6,249l-9.3-5.8L137.4,172.1z M114,238.1l-14.2-8.9l15.1-71.1l14.2,8.9L114,238.1z
	 M238,396.5l37.5-20.4l-0.7,42.9L238,396.5z M269.6,426.6l-37.5,20.8l1.1-43L269.6,426.6z M233.6,388.5l1.1-42.6l36.7,22.1
	L233.6,388.5z M219.7,396.1l-37.5,20.4l0.7-42.8L219.7,396.1z M188.1,366l37.5-20.8l-1.1,43L188.1,366z M224.1,404.1l-1.1,42.7
	l-36.7-22.1L224.1,404.1z M225.5,458.9c0.8,0.5,1.7,0.7,2.6,0.6l138.5,24L300,519.1c-2.3,1.2-3.1,3.9-2,6.2c0.4,0.8,1,1.4,1.7,1.8
	l16.3,10.1L233.6,564l-47.2-128.5L225.5,458.9z M326.1,543.5l9.3,5.8l-15.1,71.1l-79.1-49.3L326.1,543.5z M343.7,554.5l14.2,8.9
	l-15.1,71.1l-14.2-8.9L343.7,554.5z M360,553.9l-14.2-8.9l2.3-10.9c0.2-1,0.1-2-0.3-2.8c-0.5-1.2-1.5-2.1-2.8-2.5
	c-0.5-0.2-1.1-0.3-1.7-0.2c-0.4,0-0.8,0.1-1.2,0.2l-14.7,4.8l-16.1-10.1l62.2-33.1L360,553.9z M382.6,318.1l48.3,43.4l-14.8,7.9
	l-8.3-7.4c-1.9-1.7-4.8-1.6-6.5,0.2c-0.3,0.3-0.5,0.7-0.7,1l0,0c-0.2,0.4-0.3,0.8-0.4,1.2l-3.2,15.2l-16.8,8.9L382.6,318.1z
	 M394.5,391.3l-18,84.8l-134.9-23.4l39.9-22.1c0.8-0.4,1.4-1.1,1.9-1.9l90-107.9l-2.6,75.4c-0.1,2.4,1.6,4.4,3.9,4.8
	c0.5,0.1,1.1,0.1,1.6-0.1c0.4-0.1,0.8-0.3,1.2-0.5L394.5,391.3z M312.5,98.1l66.4,59.7l-0.4,11l-69.1,22.5L312.5,98.1z M309,201
	l69.1-22.5l-0.6,16.7l-69.1,22.5L309,201z M308.1,227.5l69.1-22.5l-3.2,93.2l-66.4-59.7L308.1,227.5z M306.7,269.5l0.6-19.1l64.4,58
	L284,413.5l0.8-45.6c0-0.9-0.2-1.8-0.7-2.5l-48.4-131.9l64,39.9c1.4,0.9,3.1,1,4.6,0.2l0,0C305.7,272.7,306.7,271.2,306.7,269.5
	L306.7,269.5z M285.4,229.5c0.2,1,0.7,1.8,1.5,2.5l11.5,10.4l-0.6,19L238,224.1l61.7-20.1l-0.6,16.7l-10.6,3.4
	C286.3,224.9,284.9,227.2,285.4,229.5L285.4,229.5z M270.5,26.8l8.3,7.5c0.7,0.7,1.7,1.1,2.6,1.2c1.9,0.2,3.7-0.8,4.5-2.5l0,0
	c0.2-0.4,0.3-0.8,0.4-1.2l3.2-15.2l16.8-8.9L304,78.1l-48.3-43.4L270.5,26.8z M155.1,88.3l92-49l56.5,50.8l-3.5,104.2l-72.2,23.5
	l-88.5-55.2L155.1,88.3z M82.4,127.1l62.2-33.2l-13.5,63.5l-14.2-8.9l2.3-10.9c0.6-2.5-1-4.9-3.4-5.5c-0.8-0.2-1.7-0.1-2.5,0.1
	L98.5,137L82.4,127.1z M12.4,174.8l84.9-27.6l9.3,5.8l-15.1,71.1L12.4,174.8z M97.7,238.8l14.3,8.9l-2.3,10.9
	c-0.2,1-0.1,1.9,0.3,2.8l0,0c0.9,2.2,3.4,3.3,5.7,2.5l14.7-4.8l16.1,10.1l-62.2,33.2L97.7,238.8z M75.2,474.5L26.9,431l14.8-7.9
	l8.3,7.5c1.8,1.6,4.4,1.6,6.2,0l0,0c0.4-0.4,0.7-0.8,1-1.3l0,0c0.2-0.4,0.3-0.8,0.4-1.2l3.2-15.1l16.8-8.9L75.2,474.5z M63.2,401.3
	l18-84.7l135,23.4l-39.9,22.1c-0.8,0.4-1.4,1.1-1.9,1.9l-90,107.9l2.6-75.4c0.1-2.5-1.8-4.7-4.4-4.8c-0.8,0-1.7,0.2-2.4,0.6
	L63.2,401.3z M145.2,694.5l-66.4-59.7l0.4-11l69.2-22.5L145.2,694.5z M148.8,591.6l-69.2,22.5l0.6-16.7l69.2-22.5L148.8,591.6z
	 M149.6,565.2l-69.2,22.5l3.2-93.2l66.4,59.7L149.6,565.2z M151,523.1l-0.6,19.2l-64.4-58l87.7-105.1l-0.8,45.6
	c0,0.9,0.2,1.8,0.7,2.5L222,559.2l-64-39.9c-2.1-1.4-5-0.8-6.3,1.4C151.3,521.4,151,522.2,151,523.1L151,523.1z M172.2,563.1
	c-0.2-1-0.7-1.8-1.5-2.5l-11.5-10.4l0.6-19l59.8,37.3L158,588.6l0.6-16.7l10.6-3.5C171.4,567.7,172.8,565.4,172.2,563.1L172.2,563.1
	z M187.2,765.8l-8.3-7.5c-0.3-0.3-0.7-0.6-1.1-0.8l0,0c-2.2-1.1-4.9-0.2-6.1,2l0,0c-0.2,0.4-0.3,0.8-0.4,1.2l-3.2,15.2l-16.8,8.9
	l2.4-70.5l48.3,43.4L187.2,765.8z M302.6,704.3l-92,49l-56.5-50.8l3.5-104.2l72.2-23.5l88.5,55.2L302.6,704.3z M326.6,635.2
	l14.2,8.8l-2.3,10.9c-0.6,2.5,1,4.9,3.4,5.5c0.8,0.2,1.7,0.1,2.5-0.1l14.8-4.8l16.1,10.1l-62.2,33.2L326.6,635.2z M454.4,741.6
	l-1.1,43l-36.4-22.2L454.4,741.6z"/>
<path class="st0" d="M315.1,790.2c-1.1-1.6-3-2.4-4.9-1.9l0,0c-0.4,0.1-0.7,0.2-1.1,0.4l-7.5,4h14.3c0-0.4,0-0.7-0.1-1.1
	C315.6,791.1,315.4,790.6,315.1,790.2z"/>
<path class="st0" d="M425.8,467.3c-1.1,1.5-1.1,3.5-0.1,5.1l-9.1,109.4c-0.2,2.5,1.7,4.7,4.2,4.9h0.4c1.7,0,3.3-1,4.1-2.5l32.5-15.3
	v-10.1l-31.3,14.8l7.9-94.8l23.4,16.2v-11.1l-25.6-17.8C430,464.7,427.2,465.2,425.8,467.3z"/>
<path class="st0" d="M142.6,2.4c0.4,0.6,0.9,1,1.5,1.4c0.5,0.3,1.1,0.5,1.7,0.6c0.6,0.1,1.1,0.1,1.7-0.1c0.4-0.1,0.8-0.3,1.2-0.5
	L156,0h-14.1c0,0.3,0,0.7,0.1,1C142.1,1.5,142.4,2,142.6,2.4z"/>
<path class="st0" d="M388.8,261.3c0.8,1.7,2.5,2.7,4.4,2.6l64.6,44.8v-11.1l-54.7-38l54.7-25.8v-10.1L391,255.2
	C388.7,256.3,387.7,259,388.8,261.3C388.7,261.3,388.7,261.3,388.8,261.3z"/>
<path class="st0" d="M28.2,327.3c2.5,0,4.6-2,4.6-4.6c0-0.9-0.3-1.7-0.7-2.5l9.1-109.4c0.2-2.5-1.7-4.7-4.2-4.9
	c-1.8-0.1-3.6,0.8-4.4,2.5L0,223.7v10.1L31.3,219l-7.9,94.8L0,297.6v11.1l25.6,17.8C26.4,327,27.3,327.3,28.2,327.3z"/>
<path class="st0" d="M69,531.3c-0.8-1.7-2.5-2.7-4.4-2.6L0,483.9V495l54.7,38L0,558.8v10.1l66.8-31.5
	C69.1,536.4,70.1,533.7,69,531.3C69,531.4,69,531.4,69,531.3z"/>
</svg>
