<?xml version="1.0" encoding="utf-8"?>
<!-- Generator: Adobe Illustrator 21.1.0, SVG Export Plug-In . SVG Version: 6.00 Build 0)  -->
<svg version="1.1" id="Layer_1" xmlns="http://www.w3.org/2000/svg" xmlns:xlink="http://www.w3.org/1999/xlink" x="0px" y="0px"
	 viewBox="0 0 457.7 792.7" style="enable-background:new 0 0 457.7 792.7;" xml:space="preserve">
<style type="text/css">
	.st0{fill:#202020;}
</style>
<title>Artboard 1</title>
<path class="st0" d="M406.8,361.2c-2.2-1.2-5-0.3-6.2,2l0,0l0,0c-0.2,0.4-0.3,0.8-0.4,1.2L376.5,476l-134.9-23.4l39.9-22.1
	c0.8-0.4,1.4-1.1,1.9-1.9l95.2-114.2l79.2,71.3v-12.3L298.9,230.5l158.9-51.7v-24.1L415.3,39.1l39.1,23.5c0.8,0.5,1.7,0.7,2.6,0.7
	l0.8,0.1V52.8l-0.9,0.5L411,25.8L411.5,0h-9.2l-0.5,28.3c0,0.9,0.2,1.8,0.7,2.5l51.2,139.6l-165.2,53.7c-2.4,0.7-3.8,3.3-3,5.7
	c0.3,0.8,0.7,1.5,1.4,2.1l84.8,76.3L284,413.5l0.8-45.6c0-0.9-0.2-1.8-0.7-2.5l-51.2-139.6L398,172c0.9-0.3,1.8-0.9,2.3-1.7l0,0
	c1.4-1.9,1.1-4.6-0.7-6.2l-84.8-76.3L388.2,0h-11.9L308,81.8L217.2,0h-13.7l184.2,165.8l-267.5,87L173.9,0h-9.4l-16.9,79.7
	L12.7,56.2l39.9-22.1c0.8-0.4,1.4-1.1,1.8-1.9L81.3,0H69.4L55.1,17.1L55.4,0h-9.1l-0.5,27.4L0,52.8v10.5l145.7,25.3l-36.1,169.9
	c-0.2,1-0.1,1.9,0.3,2.8l0,0c0.9,2.2,3.4,3.3,5.7,2.5l108.5-35.3l47.2,128.6l-39.1-23.5c-0.7-0.4-1.5-0.7-2.4-0.6h-0.2L83.1,307.6
	l36.1-169.9c0.6-2.5-1-4.9-3.4-5.5c-0.8-0.2-1.7-0.1-2.5,0.1L4.8,167.6l-4.8-13v24.1l108.6-35.3L50.2,418.6L0,373.4v12.3l49.9,44.9
	c1.8,1.6,4.4,1.6,6.2,0l0,0c0.4-0.4,0.7-0.8,1-1.3l0,0c0.2-0.4,0.3-0.8,0.4-1.2l23.7-111.6l135,23.5l-39.9,22.1
	c-0.8,0.4-1.4,1.1-1.9,1.9L79.2,478.2L0,406.9v12.3l158.9,142.9L0,613.8V638l42.4,115.5L3.3,730.1c-0.8-0.5-1.7-0.7-2.6-0.7L0,729.3
	v10.5l0.9-0.5l45.8,27.5l-0.5,25.9h9.2l0.5-28.4c0-0.9-0.2-1.8-0.7-2.5L4,622.2l165.2-53.7c2.4-0.7,3.8-3.3,3-5.7
	c-0.3-0.8-0.7-1.5-1.4-2.1L86,484.3l87.7-105.1l-0.8,45.6c0,0.9,0.2,1.8,0.7,2.5l51.2,139.6L59.7,620.6c-0.9,0.3-1.8,0.9-2.3,1.7
	l0,0c-1.4,1.9-1.1,4.6,0.7,6.2l84.8,76.3l-73.4,88h11.9l68.3-81.8l91,81.8h13.7L70,626.9l267.5-87l-53.6,252.9h9.4l16.9-79.7
	L445,736.4l-39.9,22.1c-0.8,0.4-1.4,1.1-1.9,1.9l-27,32.3h11.9l14.3-17.2l-0.3,17.2h9.2l0.5-27.5l45.8-25.4v-10.5L312,704
	l36.1-169.9c0.2-1,0.1-2-0.3-2.8c-0.5-1.2-1.5-2.1-2.8-2.5c-0.5-0.2-1.1-0.3-1.7-0.2c-0.4,0-0.8,0.1-1.2,0.2L233.6,564l-47.2-128.5
	l39.1,23.5c0.8,0.5,1.7,0.7,2.6,0.6L374.6,485l-36.1,169.9c-0.6,2.5,1,4.9,3.4,5.5c0.8,0.2,1.7,0.1,2.5-0.1L453,625l4.8,13v-24.2
	l-108.7,35.3L407.5,374l50.2,45.2v-12.3L407.8,362C407.5,361.7,407.1,361.5,406.8,361.2z M227.9,449.7l-45.8-27.5l0.9-53.4
	l46.7-25.9l45.8,27.5l-0.9,53.4L227.9,449.7z"/>
<path class="st0" d="M177.8,757.6L177.8,757.6c-2.2-1.1-4.9-0.2-6.1,2l0,0c-0.2,0.4-0.3,0.8-0.4,1.2l-6.8,31.9h9.4l4.7-22.3
	l24.8,22.3h13.7l-38.2-34.3C178.6,758,178.2,757.8,177.8,757.6z"/>
<path class="st0" d="M279.8,35c2.2,1.2,5,0.3,6.2-2l0,0l0,0c0.2-0.4,0.3-0.8,0.4-1.2L293.2,0h-9.4l-4.7,22.2L254.4,0h-13.7
	l38.1,34.3C279.1,34.6,279.4,34.8,279.8,35z"/>
</svg>
