<?xml version="1.0" encoding="utf-8"?>
<!-- Generator: Adobe Illustrator 21.1.0, SVG Export Plug-In . SVG Version: 6.00 Build 0)  -->
<svg version="1.1" id="Layer_1" xmlns="http://www.w3.org/2000/svg" xmlns:xlink="http://www.w3.org/1999/xlink" x="0px" y="0px"
	 viewBox="0 0 457.7 792.7" style="enable-background:new 0 0 457.7 792.7;" xml:space="preserve">
<title>Artboard 1</title>
<g>
	<path d="M427,466.1c-2.1,1.3-2.8,4.2-1.4,6.3l-9.1,109.4c-0.2,2.5,1.7,4.7,4.2,4.9h0.4c1.7,0,3.3-0.9,4-2.4l32.6-15.4v-10.2
		l-31.3,14.7l7.9-94.8l23.4,16.3V484L432,466.2C430.5,465.2,428.5,465.1,427,466.1z"/>
	<path d="M406.8,361.2c-2.3-1.1-5-0.2-6.2,2c-0.2,0.4-0.3,0.8-0.4,1.2L376.5,476l-135-23.3l39.9-22.1c0.8-0.4,1.5-1.1,1.9-1.9
		l95.2-114.2l79.2,71.1v-12.3L298.8,230.4l158.9-51.7v-24.3L415.3,39l39.1,23.5c0.8,0.5,1.7,0.7,2.6,0.7l0.7,0.1V52.8l-0.9,0.5
		L411,25.8L411.4,0h-9.1l-0.5,28.4c0,0.9,0.2,1.7,0.7,2.5l51.3,139.5l-165.2,53.7c-0.8,0.3-1.5,0.8-2.1,1.4
		c-1.7,1.9-1.5,4.8,0.4,6.5l84.8,76.3L284,413.4l0.7-45.6c0-0.9-0.2-1.7-0.7-2.5l-51.1-139.5L398.1,172c0.9-0.3,1.7-0.8,2.3-1.6
		c1.4-1.9,1.1-4.6-0.7-6.2l-84.8-76.3L388.2,0h-12L308,81.8L217.1,0h-13.6l184.2,165.7l-267.5,87L173.8,0h-9.3l-16.9,79.6L12.7,56.2
		l39.9-22.1c0.7-0.4,1.4-1.1,1.8-1.9L81.3,0h-12L55.1,17l0.3-17h-9.1l-0.5,27.5L0,52.9v10.4l145.8,25.4l-36.1,169.9
		c-0.2,0.9-0.1,1.9,0.3,2.8c1,2.2,3.4,3.3,5.7,2.5l108.5-35.3l47.2,128.5l-39.1-23.5c-0.8-0.4-1.6-0.6-2.4-0.6h-0.3L83.1,307.6
		l36.1-170c0.2-0.8,0.2-1.7-0.1-2.5c-0.8-2.3-3.4-3.6-5.8-2.8L4.8,167.6L0,154.5v24.3l108.6-35.3L50.2,418.6L0,373.4v12.3l49.9,44.9
		c0.8,0.7,1.7,1.1,2.7,1.2c0.7,0.1,1.3,0,1.9-0.2s1.2-0.5,1.7-1c0.4-0.4,0.7-0.8,1-1.3c0.2-0.4,0.3-0.8,0.4-1.2l23.6-111.6l135,23.4
		L176.3,362c-0.8,0.4-1.5,1.1-1.9,1.9L79.2,478.2L0,407v12.4l158.7,142.8L0,613.7V638l42.5,115.5L3.4,730.1
		c-0.8-0.5-1.7-0.7-2.6-0.7L0,729.3v10.5l0.9-0.5L46.7,767l-0.4,25.7h9.1l0.5-28.5c0-0.9-0.2-1.7-0.7-2.5L4,622.2l165.1-53.7
		c0.8-0.3,1.5-0.8,2.1-1.4c1.7-1.9,1.5-4.8-0.4-6.5L86,484.3l87.7-105.2l-0.8,45.6c0,0.9,0.2,1.7,0.7,2.5l51.2,139.6L59.6,620.5
		c-0.9,0.3-1.7,0.9-2.3,1.7c-1.4,2-1.1,4.6,0.7,6.2l84.8,76.2l-73.4,88.1h12l68.3-81.8l90.9,81.8h13.7L70,626.9l267.5-87
		l-53.7,252.8h9.3L310,713l135,23.4l-39.9,22.1c-0.8,0.4-1.5,1.1-1.9,1.9l-27,32.3h12.1l14.3-17.1l-0.3,17.1h9.1l0.5-27.5l45.7-25.3
		v-10.6L312,704l36-169.9c0.1-0.5,0.1-0.9,0.1-1.3c-0.1-1.9-1.3-3.5-3.1-4.1c-0.6-0.2-1.1-0.2-1.7-0.2c-0.4,0-0.8,0.1-1.2,0.2
		L233.6,564l-47.2-128.4l39.1,23.5c0.8,0.4,1.7,0.6,2.6,0.6l146.5,25.4l-36,169.9c-0.2,0.8-0.2,1.7,0.1,2.5c0.8,2.3,3.4,3.6,5.8,2.8
		L453,625l4.7,12.8v-23.9l-108.6,35.3L407.5,374l50.2,45.2v-12.4l-49.9-44.9C407.5,361.6,407.2,361.4,406.8,361.2z M227.9,449.7
		l-45.8-27.5l0.9-53.4l46.7-25.9l45.8,27.5l-0.9,53.4L227.9,449.7z"/>
	<path d="M69.4,533.1c-0.1-2.6-2.3-4.5-4.8-4.4L0,483.9V495l54.7,38L0,558.8v10.1l66.8-31.5C68.5,536.6,69.5,534.9,69.4,533.1z"/>
	<path d="M187.7,185.4c-0.2,2.5,1.7,4.7,4.2,4.9h0.4c1.7,0,3.2-0.9,4.1-2.4l99.3-46.8c1.7-0.8,2.7-2.5,2.6-4.3
		c-0.1-2.6-2.3-4.5-4.8-4.4l-90.2-62.6c-1.5-1.1-3.5-1.1-5.1-0.1c-2.1,1.3-2.8,4.2-1.4,6.3L187.7,185.4z M205.5,82.3l78.1,54.2
		l-86,40.6L205.5,82.3z"/>
	<path d="M279.8,35c2.3,1.1,5,0.2,6.2-2c0.2-0.4,0.3-0.8,0.4-1.2L293.2,0H284l-4.7,22.2L254.5,0h-13.8l38.1,34.3
		C279.1,34.6,279.4,34.8,279.8,35z"/>
	<path d="M388.3,259.5c0.1,2.6,2.3,4.5,4.8,4.4l64.6,44.8v-11.1l-54.7-38l54.7-25.7v-10.2l-66.8,31.5
		C389.2,256,388.2,257.7,388.3,259.5z"/>
	<path d="M28.2,327.3c0.9,0,1.7-0.2,2.5-0.8c2.1-1.3,2.8-4.2,1.4-6.3l9.1-109.4c0.1-1.8-0.9-3.6-2.5-4.4c-2.3-1.1-5-0.2-6.2,2
		L0,223.7v10.1L31.3,219l-7.9,94.8L0,297.6v11.2l25.6,17.8C26.4,327,27.3,327.3,28.2,327.3z"/>
	<path d="M177.8,757.5c-1.1-0.5-2.3-0.6-3.4-0.2c-1.2,0.4-2.1,1.2-2.7,2.3c-0.2,0.4-0.3,0.8-0.4,1.2l-6.8,31.9h9.6l4.7-22.3
		l24.8,22.3H217l-38.2-34.4C178.6,758,178.2,757.7,177.8,757.5z"/>
	<path d="M270.1,607.2c0.1-1.8-0.9-3.6-2.5-4.4c-2.3-1.1-5-0.2-6.2,2l-99.3,46.8c-1.7,0.8-2.7,2.5-2.6,4.3c0.1,2.6,2.3,4.5,4.8,4.4
		l90.2,62.6c0.8,0.5,1.7,0.8,2.6,0.8c0.8,0,1.7-0.2,2.5-0.8c2.1-1.3,2.8-4.2,1.4-6.3L270.1,607.2z M252.2,710.2L174.1,656l86-40.6
		L252.2,710.2z"/>
</g>
</svg>
